<?xml version="1.0" encoding="utf-8" standalone="no"?>
<!DOCTYPE svg PUBLIC "-//W3C//DTD SVG 1.1//EN"
  "http://www.w3.org/Graphics/SVG/1.1/DTD/svg11.dtd">
<svg xmlns:xlink="http://www.w3.org/1999/xlink" width="576pt" height="360pt" viewBox="0 0 576 360" xmlns="http://www.w3.org/2000/svg" version="1.1">
 <metadata>
  <rdf:RDF xmlns:dc="http://purl.org/dc/elements/1.1/" xmlns:cc="http://creativecommons.org/ns#" xmlns:rdf="http://www.w3.org/1999/02/22-rdf-syntax-ns#">
   <cc:Work>
    <dc:type rdf:resource="http://purl.org/dc/dcmitype/StillImage"/>
    <dc:date>2025-06-25T12:09:39.876706</dc:date>
    <dc:format>image/svg+xml</dc:format>
    <dc:creator>
     <cc:Agent>
      <dc:title>Matplotlib v3.9.4, https://matplotlib.org/</dc:title>
     </cc:Agent>
    </dc:creator>
   </cc:Work>
  </rdf:RDF>
 </metadata>
 <defs>
  <style type="text/css">*{stroke-linejoin: round; stroke-linecap: butt}</style>
 </defs>
 <g id="figure_1">
  <g id="patch_1">
   <path d="M 0 360 
L 576 360 
L 576 0 
L 0 0 
z
" style="fill: #ffffff"/>
  </g>
  <g id="axes_1">
   <g id="patch_2">
    <path d="M 73.415 318.04 
L 565.2 318.04 
L 565.2 26.16 
L 73.415 26.16 
z
" style="fill: #ffffff"/>
   </g>
   <g id="patch_3">
    <path d="M 95.768864 318.04 
L 104.710409 318.04 
L 104.710409 317.774829 
L 95.768864 317.774829 
z
" clip-path="url(#p122625f6f3)" style="fill: #87ceeb; opacity: 0.6"/>
   </g>
   <g id="patch_4">
    <path d="M 104.710409 318.04 
L 113.651955 318.04 
L 113.651955 317.448464 
L 104.710409 317.448464 
z
" clip-path="url(#p122625f6f3)" style="fill: #87ceeb; opacity: 0.6"/>
   </g>
   <g id="patch_5">
    <path d="M 113.651955 318.04 
L 122.5935 318.04 
L 122.5935 316.550962 
L 113.651955 316.550962 
z
" clip-path="url(#p122625f6f3)" style="fill: #87ceeb; opacity: 0.6"/>
   </g>
   <g id="patch_6">
    <path d="M 122.5935 318.04 
L 131.535045 318.04 
L 131.535045 315.979824 
L 122.5935 315.979824 
z
" clip-path="url(#p122625f6f3)" style="fill: #87ceeb; opacity: 0.6"/>
   </g>
   <g id="patch_7">
    <path d="M 131.535045 318.04 
L 140.476591 318.04 
L 140.476591 302.578482 
L 131.535045 302.578482 
z
" clip-path="url(#p122625f6f3)" style="fill: #87ceeb; opacity: 0.6"/>
   </g>
   <g id="patch_8">
    <path d="M 140.476591 318.04 
L 149.418136 318.04 
L 149.418136 263.883893 
L 140.476591 263.883893 
z
" clip-path="url(#p122625f6f3)" style="fill: #87ceeb; opacity: 0.6"/>
   </g>
   <g id="patch_9">
    <path d="M 149.418136 318.04 
L 158.359682 318.04 
L 158.359682 197.897073 
L 149.418136 197.897073 
z
" clip-path="url(#p122625f6f3)" style="fill: #87ceeb; opacity: 0.6"/>
   </g>
   <g id="patch_10">
    <path d="M 158.359682 318.04 
L 167.301227 318.04 
L 167.301227 129.992862 
L 158.359682 129.992862 
z
" clip-path="url(#p122625f6f3)" style="fill: #87ceeb; opacity: 0.6"/>
   </g>
   <g id="patch_11">
    <path d="M 167.301227 318.04 
L 176.242773 318.04 
L 176.242773 80.609835 
L 167.301227 80.609835 
z
" clip-path="url(#p122625f6f3)" style="fill: #87ceeb; opacity: 0.6"/>
   </g>
   <g id="patch_12">
    <path d="M 176.242773 318.04 
L 185.184318 318.04 
L 185.184318 51.400214 
L 176.242773 51.400214 
z
" clip-path="url(#p122625f6f3)" style="fill: #87ceeb; opacity: 0.6"/>
   </g>
   <g id="patch_13">
    <path d="M 185.184318 318.04 
L 194.125864 318.04 
L 194.125864 40.059048 
L 185.184318 40.059048 
z
" clip-path="url(#p122625f6f3)" style="fill: #87ceeb; opacity: 0.6"/>
   </g>
   <g id="patch_14">
    <path d="M 194.125864 318.04 
L 203.067409 318.04 
L 203.067409 49.197253 
L 194.125864 49.197253 
z
" clip-path="url(#p122625f6f3)" style="fill: #87ceeb; opacity: 0.6"/>
   </g>
   <g id="patch_15">
    <path d="M 203.067409 318.04 
L 212.008955 318.04 
L 212.008955 69.676625 
L 203.067409 69.676625 
z
" clip-path="url(#p122625f6f3)" style="fill: #87ceeb; opacity: 0.6"/>
   </g>
   <g id="patch_16">
    <path d="M 212.008955 318.04 
L 220.9505 318.04 
L 220.9505 91.930603 
L 212.008955 91.930603 
z
" clip-path="url(#p122625f6f3)" style="fill: #87ceeb; opacity: 0.6"/>
   </g>
   <g id="patch_17">
    <path d="M 220.9505 318.04 
L 229.892045 318.04 
L 229.892045 109.085137 
L 220.9505 109.085137 
z
" clip-path="url(#p122625f6f3)" style="fill: #87ceeb; opacity: 0.6"/>
   </g>
   <g id="patch_18">
    <path d="M 229.892045 318.04 
L 238.833591 318.04 
L 238.833591 129.788884 
L 229.892045 129.788884 
z
" clip-path="url(#p122625f6f3)" style="fill: #87ceeb; opacity: 0.6"/>
   </g>
   <g id="patch_19">
    <path d="M 238.833591 318.04 
L 247.775136 318.04 
L 247.775136 155.510485 
L 238.833591 155.510485 
z
" clip-path="url(#p122625f6f3)" style="fill: #87ceeb; opacity: 0.6"/>
   </g>
   <g id="patch_20">
    <path d="M 247.775136 318.04 
L 256.716682 318.04 
L 256.716682 173.460532 
L 247.775136 173.460532 
z
" clip-path="url(#p122625f6f3)" style="fill: #87ceeb; opacity: 0.6"/>
   </g>
   <g id="patch_21">
    <path d="M 256.716682 318.04 
L 265.658227 318.04 
L 265.658227 198.182642 
L 256.716682 198.182642 
z
" clip-path="url(#p122625f6f3)" style="fill: #87ceeb; opacity: 0.6"/>
   </g>
   <g id="patch_22">
    <path d="M 265.658227 318.04 
L 274.599773 318.04 
L 274.599773 219.926676 
L 265.658227 219.926676 
z
" clip-path="url(#p122625f6f3)" style="fill: #87ceeb; opacity: 0.6"/>
   </g>
   <g id="patch_23">
    <path d="M 274.599773 318.04 
L 283.541318 318.04 
L 283.541318 238.733429 
L 274.599773 238.733429 
z
" clip-path="url(#p122625f6f3)" style="fill: #87ceeb; opacity: 0.6"/>
   </g>
   <g id="patch_24">
    <path d="M 283.541318 318.04 
L 292.482864 318.04 
L 292.482864 258.21331 
L 283.541318 258.21331 
z
" clip-path="url(#p122625f6f3)" style="fill: #87ceeb; opacity: 0.6"/>
   </g>
   <g id="patch_25">
    <path d="M 292.482864 318.04 
L 301.424409 318.04 
L 301.424409 273.65443 
L 292.482864 273.65443 
z
" clip-path="url(#p122625f6f3)" style="fill: #87ceeb; opacity: 0.6"/>
   </g>
   <g id="patch_26">
    <path d="M 301.424409 318.04 
L 310.365955 318.04 
L 310.365955 284.934402 
L 301.424409 284.934402 
z
" clip-path="url(#p122625f6f3)" style="fill: #87ceeb; opacity: 0.6"/>
   </g>
   <g id="patch_27">
    <path d="M 310.365955 318.04 
L 319.3075 318.04 
L 319.3075 294.072608 
L 310.365955 294.072608 
z
" clip-path="url(#p122625f6f3)" style="fill: #87ceeb; opacity: 0.6"/>
   </g>
   <g id="patch_28">
    <path d="M 319.3075 318.04 
L 328.249045 318.04 
L 328.249045 301.354616 
L 319.3075 301.354616 
z
" clip-path="url(#p122625f6f3)" style="fill: #87ceeb; opacity: 0.6"/>
   </g>
   <g id="patch_29">
    <path d="M 328.249045 318.04 
L 337.190591 318.04 
L 337.190591 306.902812 
L 328.249045 306.902812 
z
" clip-path="url(#p122625f6f3)" style="fill: #87ceeb; opacity: 0.6"/>
   </g>
   <g id="patch_30">
    <path d="M 337.190591 318.04 
L 346.132136 318.04 
L 346.132136 310.452026 
L 337.190591 310.452026 
z
" clip-path="url(#p122625f6f3)" style="fill: #87ceeb; opacity: 0.6"/>
   </g>
   <g id="patch_31">
    <path d="M 346.132136 318.04 
L 355.073682 318.04 
L 355.073682 313.430102 
L 346.132136 313.430102 
z
" clip-path="url(#p122625f6f3)" style="fill: #87ceeb; opacity: 0.6"/>
   </g>
   <g id="patch_32">
    <path d="M 355.073682 318.04 
L 364.015227 318.04 
L 364.015227 314.91914 
L 355.073682 314.91914 
z
" clip-path="url(#p122625f6f3)" style="fill: #87ceeb; opacity: 0.6"/>
   </g>
   <g id="patch_33">
    <path d="M 364.015227 318.04 
L 372.956773 318.04 
L 372.956773 315.673857 
L 364.015227 315.673857 
z
" clip-path="url(#p122625f6f3)" style="fill: #87ceeb; opacity: 0.6"/>
   </g>
   <g id="patch_34">
    <path d="M 372.956773 318.04 
L 381.898318 318.04 
L 381.898318 316.591758 
L 372.956773 316.591758 
z
" clip-path="url(#p122625f6f3)" style="fill: #87ceeb; opacity: 0.6"/>
   </g>
   <g id="patch_35">
    <path d="M 381.898318 318.04 
L 390.839864 318.04 
L 390.839864 316.612155 
L 381.898318 316.612155 
z
" clip-path="url(#p122625f6f3)" style="fill: #87ceeb; opacity: 0.6"/>
   </g>
   <g id="patch_36">
    <path d="M 390.839864 318.04 
L 399.781409 318.04 
L 399.781409 317.162895 
L 390.839864 317.162895 
z
" clip-path="url(#p122625f6f3)" style="fill: #87ceeb; opacity: 0.6"/>
   </g>
   <g id="patch_37">
    <path d="M 399.781409 318.04 
L 408.722955 318.04 
L 408.722955 317.203691 
L 399.781409 317.203691 
z
" clip-path="url(#p122625f6f3)" style="fill: #87ceeb; opacity: 0.6"/>
   </g>
   <g id="patch_38">
    <path d="M 408.722955 318.04 
L 417.6645 318.04 
L 417.6645 317.570851 
L 408.722955 317.570851 
z
" clip-path="url(#p122625f6f3)" style="fill: #87ceeb; opacity: 0.6"/>
   </g>
   <g id="patch_39">
    <path d="M 417.6645 318.04 
L 426.606045 318.04 
L 426.606045 317.468862 
L 417.6645 317.468862 
z
" clip-path="url(#p122625f6f3)" style="fill: #87ceeb; opacity: 0.6"/>
   </g>
   <g id="patch_40">
    <path d="M 426.606045 318.04 
L 435.547591 318.04 
L 435.547591 317.693238 
L 426.606045 317.693238 
z
" clip-path="url(#p122625f6f3)" style="fill: #87ceeb; opacity: 0.6"/>
   </g>
   <g id="patch_41">
    <path d="M 435.547591 318.04 
L 444.489136 318.04 
L 444.489136 317.754431 
L 435.547591 317.754431 
z
" clip-path="url(#p122625f6f3)" style="fill: #87ceeb; opacity: 0.6"/>
   </g>
   <g id="patch_42">
    <path d="M 444.489136 318.04 
L 453.430682 318.04 
L 453.430682 317.774829 
L 444.489136 317.774829 
z
" clip-path="url(#p122625f6f3)" style="fill: #87ceeb; opacity: 0.6"/>
   </g>
   <g id="patch_43">
    <path d="M 453.430682 318.04 
L 462.372227 318.04 
L 462.372227 317.917613 
L 453.430682 317.917613 
z
" clip-path="url(#p122625f6f3)" style="fill: #87ceeb; opacity: 0.6"/>
   </g>
   <g id="patch_44">
    <path d="M 462.372227 318.04 
L 471.313773 318.04 
L 471.313773 317.917613 
L 462.372227 317.917613 
z
" clip-path="url(#p122625f6f3)" style="fill: #87ceeb; opacity: 0.6"/>
   </g>
   <g id="patch_45">
    <path d="M 471.313773 318.04 
L 480.255318 318.04 
L 480.255318 317.958409 
L 471.313773 317.958409 
z
" clip-path="url(#p122625f6f3)" style="fill: #87ceeb; opacity: 0.6"/>
   </g>
   <g id="patch_46">
    <path d="M 480.255318 318.04 
L 489.196864 318.04 
L 489.196864 317.958409 
L 480.255318 317.958409 
z
" clip-path="url(#p122625f6f3)" style="fill: #87ceeb; opacity: 0.6"/>
   </g>
   <g id="patch_47">
    <path d="M 489.196864 318.04 
L 498.138409 318.04 
L 498.138409 317.999204 
L 489.196864 317.999204 
z
" clip-path="url(#p122625f6f3)" style="fill: #87ceeb; opacity: 0.6"/>
   </g>
   <g id="patch_48">
    <path d="M 498.138409 318.04 
L 507.079955 318.04 
L 507.079955 317.938011 
L 498.138409 317.938011 
z
" clip-path="url(#p122625f6f3)" style="fill: #87ceeb; opacity: 0.6"/>
   </g>
   <g id="patch_49">
    <path d="M 507.079955 318.04 
L 516.0215 318.04 
L 516.0215 317.999204 
L 507.079955 317.999204 
z
" clip-path="url(#p122625f6f3)" style="fill: #87ceeb; opacity: 0.6"/>
   </g>
   <g id="patch_50">
    <path d="M 516.0215 318.04 
L 524.963045 318.04 
L 524.963045 318.019602 
L 516.0215 318.019602 
z
" clip-path="url(#p122625f6f3)" style="fill: #87ceeb; opacity: 0.6"/>
   </g>
   <g id="patch_51">
    <path d="M 524.963045 318.04 
L 533.904591 318.04 
L 533.904591 318.019602 
L 524.963045 318.019602 
z
" clip-path="url(#p122625f6f3)" style="fill: #87ceeb; opacity: 0.6"/>
   </g>
   <g id="patch_52">
    <path d="M 533.904591 318.04 
L 542.846136 318.04 
L 542.846136 318.019602 
L 533.904591 318.019602 
z
" clip-path="url(#p122625f6f3)" style="fill: #87ceeb; opacity: 0.6"/>
   </g>
   <g id="matplotlib.axis_1">
    <g id="xtick_1">
     <g id="line2d_1">
      <defs>
       <path id="mbda1648f92" d="M 0 0 
L 0 3.5 
" style="stroke: #000000; stroke-width: 0.8"/>
      </defs>
      <g>
       <use xlink:href="#mbda1648f92" x="107.097429" y="318.04" style="stroke: #000000; stroke-width: 0.8"/>
      </g>
     </g>
     <g id="text_1">
      <!-- 45000 -->
      <g transform="translate(91.191179 332.638438) scale(0.1 -0.1)">
       <defs>
        <path id="DejaVuSans-34" d="M 2419 4116 
L 825 1625 
L 2419 1625 
L 2419 4116 
z
M 2253 4666 
L 3047 4666 
L 3047 1625 
L 3713 1625 
L 3713 1100 
L 3047 1100 
L 3047 0 
L 2419 0 
L 2419 1100 
L 313 1100 
L 313 1709 
L 2253 4666 
z
" transform="scale(0.015625)"/>
        <path id="DejaVuSans-35" d="M 691 4666 
L 3169 4666 
L 3169 4134 
L 1269 4134 
L 1269 2991 
Q 1406 3038 1543 3061 
Q 1681 3084 1819 3084 
Q 2600 3084 3056 2656 
Q 3513 2228 3513 1497 
Q 3513 744 3044 326 
Q 2575 -91 1722 -91 
Q 1428 -91 1123 -41 
Q 819 9 494 109 
L 494 744 
Q 775 591 1075 516 
Q 1375 441 1709 441 
Q 2250 441 2565 725 
Q 2881 1009 2881 1497 
Q 2881 1984 2565 2268 
Q 2250 2553 1709 2553 
Q 1456 2553 1204 2497 
Q 953 2441 691 2322 
L 691 4666 
z
" transform="scale(0.015625)"/>
        <path id="DejaVuSans-30" d="M 2034 4250 
Q 1547 4250 1301 3770 
Q 1056 3291 1056 2328 
Q 1056 1369 1301 889 
Q 1547 409 2034 409 
Q 2525 409 2770 889 
Q 3016 1369 3016 2328 
Q 3016 3291 2770 3770 
Q 2525 4250 2034 4250 
z
M 2034 4750 
Q 2819 4750 3233 4129 
Q 3647 3509 3647 2328 
Q 3647 1150 3233 529 
Q 2819 -91 2034 -91 
Q 1250 -91 836 529 
Q 422 1150 422 2328 
Q 422 3509 836 4129 
Q 1250 4750 2034 4750 
z
" transform="scale(0.015625)"/>
       </defs>
       <use xlink:href="#DejaVuSans-34"/>
       <use xlink:href="#DejaVuSans-35" x="63.623047"/>
       <use xlink:href="#DejaVuSans-30" x="127.246094"/>
       <use xlink:href="#DejaVuSans-30" x="190.869141"/>
       <use xlink:href="#DejaVuSans-30" x="254.492188"/>
      </g>
     </g>
    </g>
    <g id="xtick_2">
     <g id="line2d_2">
      <g>
       <use xlink:href="#mbda1648f92" x="177.461192" y="318.04" style="stroke: #000000; stroke-width: 0.8"/>
      </g>
     </g>
     <g id="text_2">
      <!-- 50000 -->
      <g transform="translate(161.554942 332.638438) scale(0.1 -0.1)">
       <use xlink:href="#DejaVuSans-35"/>
       <use xlink:href="#DejaVuSans-30" x="63.623047"/>
       <use xlink:href="#DejaVuSans-30" x="127.246094"/>
       <use xlink:href="#DejaVuSans-30" x="190.869141"/>
       <use xlink:href="#DejaVuSans-30" x="254.492188"/>
      </g>
     </g>
    </g>
    <g id="xtick_3">
     <g id="line2d_3">
      <g>
       <use xlink:href="#mbda1648f92" x="247.824954" y="318.04" style="stroke: #000000; stroke-width: 0.8"/>
      </g>
     </g>
     <g id="text_3">
      <!-- 55000 -->
      <g transform="translate(231.918704 332.638438) scale(0.1 -0.1)">
       <use xlink:href="#DejaVuSans-35"/>
       <use xlink:href="#DejaVuSans-35" x="63.623047"/>
       <use xlink:href="#DejaVuSans-30" x="127.246094"/>
       <use xlink:href="#DejaVuSans-30" x="190.869141"/>
       <use xlink:href="#DejaVuSans-30" x="254.492188"/>
      </g>
     </g>
    </g>
    <g id="xtick_4">
     <g id="line2d_4">
      <g>
       <use xlink:href="#mbda1648f92" x="318.188716" y="318.04" style="stroke: #000000; stroke-width: 0.8"/>
      </g>
     </g>
     <g id="text_4">
      <!-- 60000 -->
      <g transform="translate(302.282466 332.638438) scale(0.1 -0.1)">
       <defs>
        <path id="DejaVuSans-36" d="M 2113 2584 
Q 1688 2584 1439 2293 
Q 1191 2003 1191 1497 
Q 1191 994 1439 701 
Q 1688 409 2113 409 
Q 2538 409 2786 701 
Q 3034 994 3034 1497 
Q 3034 2003 2786 2293 
Q 2538 2584 2113 2584 
z
M 3366 4563 
L 3366 3988 
Q 3128 4100 2886 4159 
Q 2644 4219 2406 4219 
Q 1781 4219 1451 3797 
Q 1122 3375 1075 2522 
Q 1259 2794 1537 2939 
Q 1816 3084 2150 3084 
Q 2853 3084 3261 2657 
Q 3669 2231 3669 1497 
Q 3669 778 3244 343 
Q 2819 -91 2113 -91 
Q 1303 -91 875 529 
Q 447 1150 447 2328 
Q 447 3434 972 4092 
Q 1497 4750 2381 4750 
Q 2619 4750 2861 4703 
Q 3103 4656 3366 4563 
z
" transform="scale(0.015625)"/>
       </defs>
       <use xlink:href="#DejaVuSans-36"/>
       <use xlink:href="#DejaVuSans-30" x="63.623047"/>
       <use xlink:href="#DejaVuSans-30" x="127.246094"/>
       <use xlink:href="#DejaVuSans-30" x="190.869141"/>
       <use xlink:href="#DejaVuSans-30" x="254.492188"/>
      </g>
     </g>
    </g>
    <g id="xtick_5">
     <g id="line2d_5">
      <g>
       <use xlink:href="#mbda1648f92" x="388.552478" y="318.04" style="stroke: #000000; stroke-width: 0.8"/>
      </g>
     </g>
     <g id="text_5">
      <!-- 65000 -->
      <g transform="translate(372.646228 332.638438) scale(0.1 -0.1)">
       <use xlink:href="#DejaVuSans-36"/>
       <use xlink:href="#DejaVuSans-35" x="63.623047"/>
       <use xlink:href="#DejaVuSans-30" x="127.246094"/>
       <use xlink:href="#DejaVuSans-30" x="190.869141"/>
       <use xlink:href="#DejaVuSans-30" x="254.492188"/>
      </g>
     </g>
    </g>
    <g id="xtick_6">
     <g id="line2d_6">
      <g>
       <use xlink:href="#mbda1648f92" x="458.916241" y="318.04" style="stroke: #000000; stroke-width: 0.8"/>
      </g>
     </g>
     <g id="text_6">
      <!-- 70000 -->
      <g transform="translate(443.009991 332.638438) scale(0.1 -0.1)">
       <defs>
        <path id="DejaVuSans-37" d="M 525 4666 
L 3525 4666 
L 3525 4397 
L 1831 0 
L 1172 0 
L 2766 4134 
L 525 4134 
L 525 4666 
z
" transform="scale(0.015625)"/>
       </defs>
       <use xlink:href="#DejaVuSans-37"/>
       <use xlink:href="#DejaVuSans-30" x="63.623047"/>
       <use xlink:href="#DejaVuSans-30" x="127.246094"/>
       <use xlink:href="#DejaVuSans-30" x="190.869141"/>
       <use xlink:href="#DejaVuSans-30" x="254.492188"/>
      </g>
     </g>
    </g>
    <g id="xtick_7">
     <g id="line2d_7">
      <g>
       <use xlink:href="#mbda1648f92" x="529.280003" y="318.04" style="stroke: #000000; stroke-width: 0.8"/>
      </g>
     </g>
     <g id="text_7">
      <!-- 75000 -->
      <g transform="translate(513.373753 332.638438) scale(0.1 -0.1)">
       <use xlink:href="#DejaVuSans-37"/>
       <use xlink:href="#DejaVuSans-35" x="63.623047"/>
       <use xlink:href="#DejaVuSans-30" x="127.246094"/>
       <use xlink:href="#DejaVuSans-30" x="190.869141"/>
       <use xlink:href="#DejaVuSans-30" x="254.492188"/>
      </g>
     </g>
    </g>
    <g id="text_8">
     <!-- Spot Intensity -->
     <g transform="translate(284.587969 346.316563) scale(0.1 -0.1)">
      <defs>
       <path id="DejaVuSans-53" d="M 3425 4513 
L 3425 3897 
Q 3066 4069 2747 4153 
Q 2428 4238 2131 4238 
Q 1616 4238 1336 4038 
Q 1056 3838 1056 3469 
Q 1056 3159 1242 3001 
Q 1428 2844 1947 2747 
L 2328 2669 
Q 3034 2534 3370 2195 
Q 3706 1856 3706 1288 
Q 3706 609 3251 259 
Q 2797 -91 1919 -91 
Q 1588 -91 1214 -16 
Q 841 59 441 206 
L 441 856 
Q 825 641 1194 531 
Q 1563 422 1919 422 
Q 2459 422 2753 634 
Q 3047 847 3047 1241 
Q 3047 1584 2836 1778 
Q 2625 1972 2144 2069 
L 1759 2144 
Q 1053 2284 737 2584 
Q 422 2884 422 3419 
Q 422 4038 858 4394 
Q 1294 4750 2059 4750 
Q 2388 4750 2728 4690 
Q 3069 4631 3425 4513 
z
" transform="scale(0.015625)"/>
       <path id="DejaVuSans-70" d="M 1159 525 
L 1159 -1331 
L 581 -1331 
L 581 3500 
L 1159 3500 
L 1159 2969 
Q 1341 3281 1617 3432 
Q 1894 3584 2278 3584 
Q 2916 3584 3314 3078 
Q 3713 2572 3713 1747 
Q 3713 922 3314 415 
Q 2916 -91 2278 -91 
Q 1894 -91 1617 61 
Q 1341 213 1159 525 
z
M 3116 1747 
Q 3116 2381 2855 2742 
Q 2594 3103 2138 3103 
Q 1681 3103 1420 2742 
Q 1159 2381 1159 1747 
Q 1159 1113 1420 752 
Q 1681 391 2138 391 
Q 2594 391 2855 752 
Q 3116 1113 3116 1747 
z
" transform="scale(0.015625)"/>
       <path id="DejaVuSans-6f" d="M 1959 3097 
Q 1497 3097 1228 2736 
Q 959 2375 959 1747 
Q 959 1119 1226 758 
Q 1494 397 1959 397 
Q 2419 397 2687 759 
Q 2956 1122 2956 1747 
Q 2956 2369 2687 2733 
Q 2419 3097 1959 3097 
z
M 1959 3584 
Q 2709 3584 3137 3096 
Q 3566 2609 3566 1747 
Q 3566 888 3137 398 
Q 2709 -91 1959 -91 
Q 1206 -91 779 398 
Q 353 888 353 1747 
Q 353 2609 779 3096 
Q 1206 3584 1959 3584 
z
" transform="scale(0.015625)"/>
       <path id="DejaVuSans-74" d="M 1172 4494 
L 1172 3500 
L 2356 3500 
L 2356 3053 
L 1172 3053 
L 1172 1153 
Q 1172 725 1289 603 
Q 1406 481 1766 481 
L 2356 481 
L 2356 0 
L 1766 0 
Q 1100 0 847 248 
Q 594 497 594 1153 
L 594 3053 
L 172 3053 
L 172 3500 
L 594 3500 
L 594 4494 
L 1172 4494 
z
" transform="scale(0.015625)"/>
       <path id="DejaVuSans-20" transform="scale(0.015625)"/>
       <path id="DejaVuSans-49" d="M 628 4666 
L 1259 4666 
L 1259 0 
L 628 0 
L 628 4666 
z
" transform="scale(0.015625)"/>
       <path id="DejaVuSans-6e" d="M 3513 2113 
L 3513 0 
L 2938 0 
L 2938 2094 
Q 2938 2591 2744 2837 
Q 2550 3084 2163 3084 
Q 1697 3084 1428 2787 
Q 1159 2491 1159 1978 
L 1159 0 
L 581 0 
L 581 3500 
L 1159 3500 
L 1159 2956 
Q 1366 3272 1645 3428 
Q 1925 3584 2291 3584 
Q 2894 3584 3203 3211 
Q 3513 2838 3513 2113 
z
" transform="scale(0.015625)"/>
       <path id="DejaVuSans-65" d="M 3597 1894 
L 3597 1613 
L 953 1613 
Q 991 1019 1311 708 
Q 1631 397 2203 397 
Q 2534 397 2845 478 
Q 3156 559 3463 722 
L 3463 178 
Q 3153 47 2828 -22 
Q 2503 -91 2169 -91 
Q 1331 -91 842 396 
Q 353 884 353 1716 
Q 353 2575 817 3079 
Q 1281 3584 2069 3584 
Q 2775 3584 3186 3129 
Q 3597 2675 3597 1894 
z
M 3022 2063 
Q 3016 2534 2758 2815 
Q 2500 3097 2075 3097 
Q 1594 3097 1305 2825 
Q 1016 2553 972 2059 
L 3022 2063 
z
" transform="scale(0.015625)"/>
       <path id="DejaVuSans-73" d="M 2834 3397 
L 2834 2853 
Q 2591 2978 2328 3040 
Q 2066 3103 1784 3103 
Q 1356 3103 1142 2972 
Q 928 2841 928 2578 
Q 928 2378 1081 2264 
Q 1234 2150 1697 2047 
L 1894 2003 
Q 2506 1872 2764 1633 
Q 3022 1394 3022 966 
Q 3022 478 2636 193 
Q 2250 -91 1575 -91 
Q 1294 -91 989 -36 
Q 684 19 347 128 
L 347 722 
Q 666 556 975 473 
Q 1284 391 1588 391 
Q 1994 391 2212 530 
Q 2431 669 2431 922 
Q 2431 1156 2273 1281 
Q 2116 1406 1581 1522 
L 1381 1569 
Q 847 1681 609 1914 
Q 372 2147 372 2553 
Q 372 3047 722 3315 
Q 1072 3584 1716 3584 
Q 2034 3584 2315 3537 
Q 2597 3491 2834 3397 
z
" transform="scale(0.015625)"/>
       <path id="DejaVuSans-69" d="M 603 3500 
L 1178 3500 
L 1178 0 
L 603 0 
L 603 3500 
z
M 603 4863 
L 1178 4863 
L 1178 4134 
L 603 4134 
L 603 4863 
z
" transform="scale(0.015625)"/>
       <path id="DejaVuSans-79" d="M 2059 -325 
Q 1816 -950 1584 -1140 
Q 1353 -1331 966 -1331 
L 506 -1331 
L 506 -850 
L 844 -850 
Q 1081 -850 1212 -737 
Q 1344 -625 1503 -206 
L 1606 56 
L 191 3500 
L 800 3500 
L 1894 763 
L 2988 3500 
L 3597 3500 
L 2059 -325 
z
" transform="scale(0.015625)"/>
      </defs>
      <use xlink:href="#DejaVuSans-53"/>
      <use xlink:href="#DejaVuSans-70" x="63.476562"/>
      <use xlink:href="#DejaVuSans-6f" x="126.953125"/>
      <use xlink:href="#DejaVuSans-74" x="188.134766"/>
      <use xlink:href="#DejaVuSans-20" x="227.34375"/>
      <use xlink:href="#DejaVuSans-49" x="259.130859"/>
      <use xlink:href="#DejaVuSans-6e" x="288.623047"/>
      <use xlink:href="#DejaVuSans-74" x="352.001953"/>
      <use xlink:href="#DejaVuSans-65" x="391.210938"/>
      <use xlink:href="#DejaVuSans-6e" x="452.734375"/>
      <use xlink:href="#DejaVuSans-73" x="516.113281"/>
      <use xlink:href="#DejaVuSans-69" x="568.212891"/>
      <use xlink:href="#DejaVuSans-74" x="595.996094"/>
      <use xlink:href="#DejaVuSans-79" x="635.205078"/>
     </g>
    </g>
   </g>
   <g id="matplotlib.axis_2">
    <g id="ytick_1">
     <g id="line2d_8">
      <defs>
       <path id="m7e555a3d4c" d="M 0 0 
L -3.5 0 
" style="stroke: #000000; stroke-width: 0.8"/>
      </defs>
      <g>
       <use xlink:href="#m7e555a3d4c" x="73.415" y="318.04" style="stroke: #000000; stroke-width: 0.8"/>
      </g>
     </g>
     <g id="text_9">
      <!-- 0.00000 -->
      <g transform="translate(25.061875 321.839219) scale(0.1 -0.1)">
       <defs>
        <path id="DejaVuSans-2e" d="M 684 794 
L 1344 794 
L 1344 0 
L 684 0 
L 684 794 
z
" transform="scale(0.015625)"/>
       </defs>
       <use xlink:href="#DejaVuSans-30"/>
       <use xlink:href="#DejaVuSans-2e" x="63.623047"/>
       <use xlink:href="#DejaVuSans-30" x="95.410156"/>
       <use xlink:href="#DejaVuSans-30" x="159.033203"/>
       <use xlink:href="#DejaVuSans-30" x="222.65625"/>
       <use xlink:href="#DejaVuSans-30" x="286.279297"/>
       <use xlink:href="#DejaVuSans-30" x="349.902344"/>
      </g>
     </g>
    </g>
    <g id="ytick_2">
     <g id="line2d_9">
      <g>
       <use xlink:href="#m7e555a3d4c" x="73.415" y="278.352323" style="stroke: #000000; stroke-width: 0.8"/>
      </g>
     </g>
     <g id="text_10">
      <!-- 0.00002 -->
      <g transform="translate(25.061875 282.151542) scale(0.1 -0.1)">
       <defs>
        <path id="DejaVuSans-32" d="M 1228 531 
L 3431 531 
L 3431 0 
L 469 0 
L 469 531 
Q 828 903 1448 1529 
Q 2069 2156 2228 2338 
Q 2531 2678 2651 2914 
Q 2772 3150 2772 3378 
Q 2772 3750 2511 3984 
Q 2250 4219 1831 4219 
Q 1534 4219 1204 4116 
Q 875 4013 500 3803 
L 500 4441 
Q 881 4594 1212 4672 
Q 1544 4750 1819 4750 
Q 2544 4750 2975 4387 
Q 3406 4025 3406 3419 
Q 3406 3131 3298 2873 
Q 3191 2616 2906 2266 
Q 2828 2175 2409 1742 
Q 1991 1309 1228 531 
z
" transform="scale(0.015625)"/>
       </defs>
       <use xlink:href="#DejaVuSans-30"/>
       <use xlink:href="#DejaVuSans-2e" x="63.623047"/>
       <use xlink:href="#DejaVuSans-30" x="95.410156"/>
       <use xlink:href="#DejaVuSans-30" x="159.033203"/>
       <use xlink:href="#DejaVuSans-30" x="222.65625"/>
       <use xlink:href="#DejaVuSans-30" x="286.279297"/>
       <use xlink:href="#DejaVuSans-32" x="349.902344"/>
      </g>
     </g>
    </g>
    <g id="ytick_3">
     <g id="line2d_10">
      <g>
       <use xlink:href="#m7e555a3d4c" x="73.415" y="238.664646" style="stroke: #000000; stroke-width: 0.8"/>
      </g>
     </g>
     <g id="text_11">
      <!-- 0.00004 -->
      <g transform="translate(25.061875 242.463865) scale(0.1 -0.1)">
       <use xlink:href="#DejaVuSans-30"/>
       <use xlink:href="#DejaVuSans-2e" x="63.623047"/>
       <use xlink:href="#DejaVuSans-30" x="95.410156"/>
       <use xlink:href="#DejaVuSans-30" x="159.033203"/>
       <use xlink:href="#DejaVuSans-30" x="222.65625"/>
       <use xlink:href="#DejaVuSans-30" x="286.279297"/>
       <use xlink:href="#DejaVuSans-34" x="349.902344"/>
      </g>
     </g>
    </g>
    <g id="ytick_4">
     <g id="line2d_11">
      <g>
       <use xlink:href="#m7e555a3d4c" x="73.415" y="198.976969" style="stroke: #000000; stroke-width: 0.8"/>
      </g>
     </g>
     <g id="text_12">
      <!-- 0.00006 -->
      <g transform="translate(25.061875 202.776188) scale(0.1 -0.1)">
       <use xlink:href="#DejaVuSans-30"/>
       <use xlink:href="#DejaVuSans-2e" x="63.623047"/>
       <use xlink:href="#DejaVuSans-30" x="95.410156"/>
       <use xlink:href="#DejaVuSans-30" x="159.033203"/>
       <use xlink:href="#DejaVuSans-30" x="222.65625"/>
       <use xlink:href="#DejaVuSans-30" x="286.279297"/>
       <use xlink:href="#DejaVuSans-36" x="349.902344"/>
      </g>
     </g>
    </g>
    <g id="ytick_5">
     <g id="line2d_12">
      <g>
       <use xlink:href="#m7e555a3d4c" x="73.415" y="159.289292" style="stroke: #000000; stroke-width: 0.8"/>
      </g>
     </g>
     <g id="text_13">
      <!-- 0.00008 -->
      <g transform="translate(25.061875 163.088511) scale(0.1 -0.1)">
       <defs>
        <path id="DejaVuSans-38" d="M 2034 2216 
Q 1584 2216 1326 1975 
Q 1069 1734 1069 1313 
Q 1069 891 1326 650 
Q 1584 409 2034 409 
Q 2484 409 2743 651 
Q 3003 894 3003 1313 
Q 3003 1734 2745 1975 
Q 2488 2216 2034 2216 
z
M 1403 2484 
Q 997 2584 770 2862 
Q 544 3141 544 3541 
Q 544 4100 942 4425 
Q 1341 4750 2034 4750 
Q 2731 4750 3128 4425 
Q 3525 4100 3525 3541 
Q 3525 3141 3298 2862 
Q 3072 2584 2669 2484 
Q 3125 2378 3379 2068 
Q 3634 1759 3634 1313 
Q 3634 634 3220 271 
Q 2806 -91 2034 -91 
Q 1263 -91 848 271 
Q 434 634 434 1313 
Q 434 1759 690 2068 
Q 947 2378 1403 2484 
z
M 1172 3481 
Q 1172 3119 1398 2916 
Q 1625 2713 2034 2713 
Q 2441 2713 2670 2916 
Q 2900 3119 2900 3481 
Q 2900 3844 2670 4047 
Q 2441 4250 2034 4250 
Q 1625 4250 1398 4047 
Q 1172 3844 1172 3481 
z
" transform="scale(0.015625)"/>
       </defs>
       <use xlink:href="#DejaVuSans-30"/>
       <use xlink:href="#DejaVuSans-2e" x="63.623047"/>
       <use xlink:href="#DejaVuSans-30" x="95.410156"/>
       <use xlink:href="#DejaVuSans-30" x="159.033203"/>
       <use xlink:href="#DejaVuSans-30" x="222.65625"/>
       <use xlink:href="#DejaVuSans-30" x="286.279297"/>
       <use xlink:href="#DejaVuSans-38" x="349.902344"/>
      </g>
     </g>
    </g>
    <g id="ytick_6">
     <g id="line2d_13">
      <g>
       <use xlink:href="#m7e555a3d4c" x="73.415" y="119.601615" style="stroke: #000000; stroke-width: 0.8"/>
      </g>
     </g>
     <g id="text_14">
      <!-- 0.00010 -->
      <g transform="translate(25.061875 123.400834) scale(0.1 -0.1)">
       <defs>
        <path id="DejaVuSans-31" d="M 794 531 
L 1825 531 
L 1825 4091 
L 703 3866 
L 703 4441 
L 1819 4666 
L 2450 4666 
L 2450 531 
L 3481 531 
L 3481 0 
L 794 0 
L 794 531 
z
" transform="scale(0.015625)"/>
       </defs>
       <use xlink:href="#DejaVuSans-30"/>
       <use xlink:href="#DejaVuSans-2e" x="63.623047"/>
       <use xlink:href="#DejaVuSans-30" x="95.410156"/>
       <use xlink:href="#DejaVuSans-30" x="159.033203"/>
       <use xlink:href="#DejaVuSans-30" x="222.65625"/>
       <use xlink:href="#DejaVuSans-31" x="286.279297"/>
       <use xlink:href="#DejaVuSans-30" x="349.902344"/>
      </g>
     </g>
    </g>
    <g id="ytick_7">
     <g id="line2d_14">
      <g>
       <use xlink:href="#m7e555a3d4c" x="73.415" y="79.913938" style="stroke: #000000; stroke-width: 0.8"/>
      </g>
     </g>
     <g id="text_15">
      <!-- 0.00012 -->
      <g transform="translate(25.061875 83.713157) scale(0.1 -0.1)">
       <use xlink:href="#DejaVuSans-30"/>
       <use xlink:href="#DejaVuSans-2e" x="63.623047"/>
       <use xlink:href="#DejaVuSans-30" x="95.410156"/>
       <use xlink:href="#DejaVuSans-30" x="159.033203"/>
       <use xlink:href="#DejaVuSans-30" x="222.65625"/>
       <use xlink:href="#DejaVuSans-31" x="286.279297"/>
       <use xlink:href="#DejaVuSans-32" x="349.902344"/>
      </g>
     </g>
    </g>
    <g id="ytick_8">
     <g id="line2d_15">
      <g>
       <use xlink:href="#m7e555a3d4c" x="73.415" y="40.226261" style="stroke: #000000; stroke-width: 0.8"/>
      </g>
     </g>
     <g id="text_16">
      <!-- 0.00014 -->
      <g transform="translate(25.061875 44.02548) scale(0.1 -0.1)">
       <use xlink:href="#DejaVuSans-30"/>
       <use xlink:href="#DejaVuSans-2e" x="63.623047"/>
       <use xlink:href="#DejaVuSans-30" x="95.410156"/>
       <use xlink:href="#DejaVuSans-30" x="159.033203"/>
       <use xlink:href="#DejaVuSans-30" x="222.65625"/>
       <use xlink:href="#DejaVuSans-31" x="286.279297"/>
       <use xlink:href="#DejaVuSans-34" x="349.902344"/>
      </g>
     </g>
    </g>
    <g id="text_17">
     <!-- Density -->
     <g transform="translate(18.982188 191.108594) rotate(-90) scale(0.1 -0.1)">
      <defs>
       <path id="DejaVuSans-44" d="M 1259 4147 
L 1259 519 
L 2022 519 
Q 2988 519 3436 956 
Q 3884 1394 3884 2338 
Q 3884 3275 3436 3711 
Q 2988 4147 2022 4147 
L 1259 4147 
z
M 628 4666 
L 1925 4666 
Q 3281 4666 3915 4102 
Q 4550 3538 4550 2338 
Q 4550 1131 3912 565 
Q 3275 0 1925 0 
L 628 0 
L 628 4666 
z
" transform="scale(0.015625)"/>
      </defs>
      <use xlink:href="#DejaVuSans-44"/>
      <use xlink:href="#DejaVuSans-65" x="77.001953"/>
      <use xlink:href="#DejaVuSans-6e" x="138.525391"/>
      <use xlink:href="#DejaVuSans-73" x="201.904297"/>
      <use xlink:href="#DejaVuSans-69" x="254.003906"/>
      <use xlink:href="#DejaVuSans-74" x="281.787109"/>
      <use xlink:href="#DejaVuSans-79" x="320.996094"/>
     </g>
    </g>
   </g>
   <g id="line2d_16">
    <path d="M 95.768864 312.261009 
L 98.901537 310.989825 
L 102.034211 309.484782 
L 105.166884 307.713677 
L 107.852033 305.957886 
L 110.537182 303.95885 
L 113.222331 301.693254 
L 115.90748 299.13736 
L 118.592628 296.267333 
L 121.277777 293.059636 
L 123.962926 289.491461 
L 126.648075 285.541226 
L 129.333223 281.189103 
L 132.018372 276.417598 
L 134.703521 271.212153 
L 137.38867 265.561765 
L 140.521343 258.398449 
L 143.654017 250.617941 
L 146.786691 242.227913 
L 149.919364 233.247339 
L 153.499563 222.301402 
L 157.527286 209.199588 
L 162.002534 193.820123 
L 167.820356 172.914347 
L 180.798575 125.887035 
L 184.826298 112.264131 
L 188.406497 100.959099 
L 191.53917 91.85527 
L 194.224319 84.741316 
L 196.461943 79.358015 
L 198.699567 74.514167 
L 200.937191 70.247317 
L 202.72729 67.271939 
L 204.517389 64.702481 
L 206.307489 62.552091 
L 207.650063 61.221053 
L 208.992637 60.135889 
L 210.335212 59.299768 
L 211.677786 58.715136 
L 213.020361 58.383709 
L 214.362935 58.306459 
L 215.705509 58.483614 
L 217.048084 58.914653 
L 218.390658 59.598311 
L 219.733233 60.532584 
L 221.075807 61.71474 
L 222.418381 63.141331 
L 224.208481 65.41642 
L 225.99858 68.106913 
L 227.788679 71.199073 
L 229.578778 74.677235 
L 231.816402 79.540993 
L 234.054026 84.942797 
L 236.739175 92.076931 
L 239.424324 99.849494 
L 242.556997 109.615163 
L 246.137196 121.529624 
L 250.612444 137.249559 
L 257.77284 163.37019 
L 265.828287 192.524531 
L 270.751059 209.466579 
L 274.778783 222.55294 
L 278.358981 233.483254 
L 281.939179 243.682257 
L 285.071853 251.970688 
L 288.204527 259.647545 
L 291.3372 266.706952 
L 294.469874 273.152985 
L 297.155023 278.199411 
L 299.840171 282.816805 
L 302.52532 287.020861 
L 305.210469 290.82999 
L 307.895618 294.264719 
L 310.580766 297.347137 
L 313.265915 300.100369 
L 315.951064 302.54811 
L 318.636213 304.7142 
L 321.321362 306.62226 
L 324.454035 308.552969 
L 327.586709 310.199137 
L 330.719382 311.594141 
L 334.299581 312.920751 
L 337.879779 314.002561 
L 341.907502 314.9745 
L 346.38275 315.805832 
L 351.305523 316.48213 
L 357.123345 317.039767 
L 363.836217 317.453675 
L 372.786713 317.76311 
L 385.317408 317.949973 
L 408.588697 318.03109 
L 538.818413 318.04 
L 542.846136 318.04 
L 542.846136 318.04 
" clip-path="url(#p122625f6f3)" style="fill: none; stroke-dasharray: 5.55,2.4; stroke-dashoffset: 0; stroke: #ff0000; stroke-width: 1.5"/>
   </g>
   <g id="patch_53">
    <path d="M 73.415 318.04 
L 73.415 26.16 
" style="fill: none; stroke: #000000; stroke-width: 0.8; stroke-linejoin: miter; stroke-linecap: square"/>
   </g>
   <g id="patch_54">
    <path d="M 565.2 318.04 
L 565.2 26.16 
" style="fill: none; stroke: #000000; stroke-width: 0.8; stroke-linejoin: miter; stroke-linecap: square"/>
   </g>
   <g id="patch_55">
    <path d="M 73.415 318.04 
L 565.2 318.04 
" style="fill: none; stroke: #000000; stroke-width: 0.8; stroke-linejoin: miter; stroke-linecap: square"/>
   </g>
   <g id="patch_56">
    <path d="M 73.415 26.16 
L 565.2 26.16 
" style="fill: none; stroke: #000000; stroke-width: 0.8; stroke-linejoin: miter; stroke-linecap: square"/>
   </g>
   <g id="text_18">
    <!-- Distribution of Spot Intensities -->
    <g transform="translate(228.11125 20.16) scale(0.12 -0.12)">
     <defs>
      <path id="DejaVuSans-72" d="M 2631 2963 
Q 2534 3019 2420 3045 
Q 2306 3072 2169 3072 
Q 1681 3072 1420 2755 
Q 1159 2438 1159 1844 
L 1159 0 
L 581 0 
L 581 3500 
L 1159 3500 
L 1159 2956 
Q 1341 3275 1631 3429 
Q 1922 3584 2338 3584 
Q 2397 3584 2469 3576 
Q 2541 3569 2628 3553 
L 2631 2963 
z
" transform="scale(0.015625)"/>
      <path id="DejaVuSans-62" d="M 3116 1747 
Q 3116 2381 2855 2742 
Q 2594 3103 2138 3103 
Q 1681 3103 1420 2742 
Q 1159 2381 1159 1747 
Q 1159 1113 1420 752 
Q 1681 391 2138 391 
Q 2594 391 2855 752 
Q 3116 1113 3116 1747 
z
M 1159 2969 
Q 1341 3281 1617 3432 
Q 1894 3584 2278 3584 
Q 2916 3584 3314 3078 
Q 3713 2572 3713 1747 
Q 3713 922 3314 415 
Q 2916 -91 2278 -91 
Q 1894 -91 1617 61 
Q 1341 213 1159 525 
L 1159 0 
L 581 0 
L 581 4863 
L 1159 4863 
L 1159 2969 
z
" transform="scale(0.015625)"/>
      <path id="DejaVuSans-75" d="M 544 1381 
L 544 3500 
L 1119 3500 
L 1119 1403 
Q 1119 906 1312 657 
Q 1506 409 1894 409 
Q 2359 409 2629 706 
Q 2900 1003 2900 1516 
L 2900 3500 
L 3475 3500 
L 3475 0 
L 2900 0 
L 2900 538 
Q 2691 219 2414 64 
Q 2138 -91 1772 -91 
Q 1169 -91 856 284 
Q 544 659 544 1381 
z
M 1991 3584 
L 1991 3584 
z
" transform="scale(0.015625)"/>
      <path id="DejaVuSans-66" d="M 2375 4863 
L 2375 4384 
L 1825 4384 
Q 1516 4384 1395 4259 
Q 1275 4134 1275 3809 
L 1275 3500 
L 2222 3500 
L 2222 3053 
L 1275 3053 
L 1275 0 
L 697 0 
L 697 3053 
L 147 3053 
L 147 3500 
L 697 3500 
L 697 3744 
Q 697 4328 969 4595 
Q 1241 4863 1831 4863 
L 2375 4863 
z
" transform="scale(0.015625)"/>
     </defs>
     <use xlink:href="#DejaVuSans-44"/>
     <use xlink:href="#DejaVuSans-69" x="77.001953"/>
     <use xlink:href="#DejaVuSans-73" x="104.785156"/>
     <use xlink:href="#DejaVuSans-74" x="156.884766"/>
     <use xlink:href="#DejaVuSans-72" x="196.09375"/>
     <use xlink:href="#DejaVuSans-69" x="237.207031"/>
     <use xlink:href="#DejaVuSans-62" x="264.990234"/>
     <use xlink:href="#DejaVuSans-75" x="328.466797"/>
     <use xlink:href="#DejaVuSans-74" x="391.845703"/>
     <use xlink:href="#DejaVuSans-69" x="431.054688"/>
     <use xlink:href="#DejaVuSans-6f" x="458.837891"/>
     <use xlink:href="#DejaVuSans-6e" x="520.019531"/>
     <use xlink:href="#DejaVuSans-20" x="583.398438"/>
     <use xlink:href="#DejaVuSans-6f" x="615.185547"/>
     <use xlink:href="#DejaVuSans-66" x="676.367188"/>
     <use xlink:href="#DejaVuSans-20" x="711.572266"/>
     <use xlink:href="#DejaVuSans-53" x="743.359375"/>
     <use xlink:href="#DejaVuSans-70" x="806.835938"/>
     <use xlink:href="#DejaVuSans-6f" x="870.3125"/>
     <use xlink:href="#DejaVuSans-74" x="931.494141"/>
     <use xlink:href="#DejaVuSans-20" x="970.703125"/>
     <use xlink:href="#DejaVuSans-49" x="1002.490234"/>
     <use xlink:href="#DejaVuSans-6e" x="1031.982422"/>
     <use xlink:href="#DejaVuSans-74" x="1095.361328"/>
     <use xlink:href="#DejaVuSans-65" x="1134.570312"/>
     <use xlink:href="#DejaVuSans-6e" x="1196.09375"/>
     <use xlink:href="#DejaVuSans-73" x="1259.472656"/>
     <use xlink:href="#DejaVuSans-69" x="1311.572266"/>
     <use xlink:href="#DejaVuSans-74" x="1339.355469"/>
     <use xlink:href="#DejaVuSans-69" x="1378.564453"/>
     <use xlink:href="#DejaVuSans-65" x="1406.347656"/>
     <use xlink:href="#DejaVuSans-73" x="1467.871094"/>
    </g>
   </g>
   <g id="legend_1">
    <g id="patch_57">
     <path d="M 342.067187 74.714062 
L 558.2 74.714062 
Q 560.2 74.714062 560.2 72.714062 
L 560.2 33.16 
Q 560.2 31.16 558.2 31.16 
L 342.067187 31.16 
Q 340.067187 31.16 340.067187 33.16 
L 340.067187 72.714062 
Q 340.067187 74.714062 342.067187 74.714062 
z
" style="fill: #ffffff; opacity: 0.8; stroke: #cccccc; stroke-linejoin: miter"/>
    </g>
    <g id="patch_58">
     <path d="M 344.067187 42.758437 
L 364.067187 42.758437 
L 364.067187 35.758437 
L 344.067187 35.758437 
z
" style="fill: #87ceeb; opacity: 0.6"/>
    </g>
    <g id="text_19">
     <!-- Data -->
     <g transform="translate(372.067187 42.758437) scale(0.1 -0.1)">
      <defs>
       <path id="DejaVuSans-61" d="M 2194 1759 
Q 1497 1759 1228 1600 
Q 959 1441 959 1056 
Q 959 750 1161 570 
Q 1363 391 1709 391 
Q 2188 391 2477 730 
Q 2766 1069 2766 1631 
L 2766 1759 
L 2194 1759 
z
M 3341 1997 
L 3341 0 
L 2766 0 
L 2766 531 
Q 2569 213 2275 61 
Q 1981 -91 1556 -91 
Q 1019 -91 701 211 
Q 384 513 384 1019 
Q 384 1609 779 1909 
Q 1175 2209 1959 2209 
L 2766 2209 
L 2766 2266 
Q 2766 2663 2505 2880 
Q 2244 3097 1772 3097 
Q 1472 3097 1187 3025 
Q 903 2953 641 2809 
L 641 3341 
Q 956 3463 1253 3523 
Q 1550 3584 1831 3584 
Q 2591 3584 2966 3190 
Q 3341 2797 3341 1997 
z
" transform="scale(0.015625)"/>
      </defs>
      <use xlink:href="#DejaVuSans-44"/>
      <use xlink:href="#DejaVuSans-61" x="77.001953"/>
      <use xlink:href="#DejaVuSans-74" x="138.28125"/>
      <use xlink:href="#DejaVuSans-61" x="177.490234"/>
     </g>
    </g>
    <g id="line2d_17">
     <path d="M 344.067187 60.575312 
L 354.067187 60.575312 
L 364.067187 60.575312 
" style="fill: none; stroke-dasharray: 5.55,2.4; stroke-dashoffset: 0; stroke: #ff0000; stroke-width: 1.5"/>
    </g>
    <g id="text_20">
     <!-- Gaussian Fit -->
     <g transform="translate(372.067187 57.436562) scale(0.1 -0.1)">
      <defs>
       <path id="DejaVuSans-47" d="M 3809 666 
L 3809 1919 
L 2778 1919 
L 2778 2438 
L 4434 2438 
L 4434 434 
Q 4069 175 3628 42 
Q 3188 -91 2688 -91 
Q 1594 -91 976 548 
Q 359 1188 359 2328 
Q 359 3472 976 4111 
Q 1594 4750 2688 4750 
Q 3144 4750 3555 4637 
Q 3966 4525 4313 4306 
L 4313 3634 
Q 3963 3931 3569 4081 
Q 3175 4231 2741 4231 
Q 1884 4231 1454 3753 
Q 1025 3275 1025 2328 
Q 1025 1384 1454 906 
Q 1884 428 2741 428 
Q 3075 428 3337 486 
Q 3600 544 3809 666 
z
" transform="scale(0.015625)"/>
       <path id="DejaVuSans-46" d="M 628 4666 
L 3309 4666 
L 3309 4134 
L 1259 4134 
L 1259 2759 
L 3109 2759 
L 3109 2228 
L 1259 2228 
L 1259 0 
L 628 0 
L 628 4666 
z
" transform="scale(0.015625)"/>
      </defs>
      <use xlink:href="#DejaVuSans-47"/>
      <use xlink:href="#DejaVuSans-61" x="77.490234"/>
      <use xlink:href="#DejaVuSans-75" x="138.769531"/>
      <use xlink:href="#DejaVuSans-73" x="202.148438"/>
      <use xlink:href="#DejaVuSans-73" x="254.248047"/>
      <use xlink:href="#DejaVuSans-69" x="306.347656"/>
      <use xlink:href="#DejaVuSans-61" x="334.130859"/>
      <use xlink:href="#DejaVuSans-6e" x="395.410156"/>
      <use xlink:href="#DejaVuSans-20" x="458.789062"/>
      <use xlink:href="#DejaVuSans-46" x="490.576172"/>
      <use xlink:href="#DejaVuSans-69" x="540.845703"/>
      <use xlink:href="#DejaVuSans-74" x="568.628906"/>
     </g>
     <!-- μ=52603.48, σ=3047.89, n=153112 -->
     <g transform="translate(372.067187 68.634375) scale(0.1 -0.1)">
      <defs>
       <path id="DejaVuSans-3bc" d="M 544 -1331 
L 544 3500 
L 1119 3500 
L 1119 1325 
Q 1119 872 1334 640 
Q 1550 409 1972 409 
Q 2434 409 2667 671 
Q 2900 934 2900 1459 
L 2900 3500 
L 3475 3500 
L 3475 806 
Q 3475 619 3529 530 
Q 3584 441 3700 441 
Q 3728 441 3778 458 
Q 3828 475 3916 513 
L 3916 50 
Q 3788 -22 3673 -56 
Q 3559 -91 3450 -91 
Q 3234 -91 3106 31 
Q 2978 153 2931 403 
Q 2775 156 2548 32 
Q 2322 -91 2016 -91 
Q 1697 -91 1473 31 
Q 1250 153 1119 397 
L 1119 -1331 
L 544 -1331 
z
" transform="scale(0.015625)"/>
       <path id="DejaVuSans-3d" d="M 678 2906 
L 4684 2906 
L 4684 2381 
L 678 2381 
L 678 2906 
z
M 678 1631 
L 4684 1631 
L 4684 1100 
L 678 1100 
L 678 1631 
z
" transform="scale(0.015625)"/>
       <path id="DejaVuSans-33" d="M 2597 2516 
Q 3050 2419 3304 2112 
Q 3559 1806 3559 1356 
Q 3559 666 3084 287 
Q 2609 -91 1734 -91 
Q 1441 -91 1130 -33 
Q 819 25 488 141 
L 488 750 
Q 750 597 1062 519 
Q 1375 441 1716 441 
Q 2309 441 2620 675 
Q 2931 909 2931 1356 
Q 2931 1769 2642 2001 
Q 2353 2234 1838 2234 
L 1294 2234 
L 1294 2753 
L 1863 2753 
Q 2328 2753 2575 2939 
Q 2822 3125 2822 3475 
Q 2822 3834 2567 4026 
Q 2313 4219 1838 4219 
Q 1578 4219 1281 4162 
Q 984 4106 628 3988 
L 628 4550 
Q 988 4650 1302 4700 
Q 1616 4750 1894 4750 
Q 2613 4750 3031 4423 
Q 3450 4097 3450 3541 
Q 3450 3153 3228 2886 
Q 3006 2619 2597 2516 
z
" transform="scale(0.015625)"/>
       <path id="DejaVuSans-2c" d="M 750 794 
L 1409 794 
L 1409 256 
L 897 -744 
L 494 -744 
L 750 256 
L 750 794 
z
" transform="scale(0.015625)"/>
       <path id="DejaVuSans-3c3" d="M 1959 3044 
Q 1484 3044 1228 2700 
Q 959 2341 959 1747 
Q 959 1119 1226 758 
Q 1494 397 1959 397 
Q 2419 397 2687 759 
Q 2956 1122 2956 1747 
Q 2956 2319 2688 2700 
Q 2441 3044 1959 3044 
z
M 1959 3500 
L 3869 3500 
L 3869 2925 
L 3225 2925 
Q 3566 2438 3566 1747 
Q 3566 888 3138 400 
Q 2709 -91 1959 -91 
Q 1206 -91 781 400 
Q 353 888 353 1747 
Q 353 2613 781 3097 
Q 1134 3500 1959 3500 
z
" transform="scale(0.015625)"/>
       <path id="DejaVuSans-39" d="M 703 97 
L 703 672 
Q 941 559 1184 500 
Q 1428 441 1663 441 
Q 2288 441 2617 861 
Q 2947 1281 2994 2138 
Q 2813 1869 2534 1725 
Q 2256 1581 1919 1581 
Q 1219 1581 811 2004 
Q 403 2428 403 3163 
Q 403 3881 828 4315 
Q 1253 4750 1959 4750 
Q 2769 4750 3195 4129 
Q 3622 3509 3622 2328 
Q 3622 1225 3098 567 
Q 2575 -91 1691 -91 
Q 1453 -91 1209 -44 
Q 966 3 703 97 
z
M 1959 2075 
Q 2384 2075 2632 2365 
Q 2881 2656 2881 3163 
Q 2881 3666 2632 3958 
Q 2384 4250 1959 4250 
Q 1534 4250 1286 3958 
Q 1038 3666 1038 3163 
Q 1038 2656 1286 2365 
Q 1534 2075 1959 2075 
z
" transform="scale(0.015625)"/>
      </defs>
      <use xlink:href="#DejaVuSans-3bc"/>
      <use xlink:href="#DejaVuSans-3d" x="63.623047"/>
      <use xlink:href="#DejaVuSans-35" x="147.412109"/>
      <use xlink:href="#DejaVuSans-32" x="211.035156"/>
      <use xlink:href="#DejaVuSans-36" x="274.658203"/>
      <use xlink:href="#DejaVuSans-30" x="338.28125"/>
      <use xlink:href="#DejaVuSans-33" x="401.904297"/>
      <use xlink:href="#DejaVuSans-2e" x="465.527344"/>
      <use xlink:href="#DejaVuSans-34" x="497.314453"/>
      <use xlink:href="#DejaVuSans-38" x="560.9375"/>
      <use xlink:href="#DejaVuSans-2c" x="624.560547"/>
      <use xlink:href="#DejaVuSans-20" x="656.347656"/>
      <use xlink:href="#DejaVuSans-3c3" x="688.134766"/>
      <use xlink:href="#DejaVuSans-3d" x="751.513672"/>
      <use xlink:href="#DejaVuSans-33" x="835.302734"/>
      <use xlink:href="#DejaVuSans-30" x="898.925781"/>
      <use xlink:href="#DejaVuSans-34" x="962.548828"/>
      <use xlink:href="#DejaVuSans-37" x="1026.171875"/>
      <use xlink:href="#DejaVuSans-2e" x="1089.794922"/>
      <use xlink:href="#DejaVuSans-38" x="1121.582031"/>
      <use xlink:href="#DejaVuSans-39" x="1185.205078"/>
      <use xlink:href="#DejaVuSans-2c" x="1248.828125"/>
      <use xlink:href="#DejaVuSans-20" x="1280.615234"/>
      <use xlink:href="#DejaVuSans-6e" x="1312.402344"/>
      <use xlink:href="#DejaVuSans-3d" x="1375.78125"/>
      <use xlink:href="#DejaVuSans-31" x="1459.570312"/>
      <use xlink:href="#DejaVuSans-35" x="1523.193359"/>
      <use xlink:href="#DejaVuSans-33" x="1586.816406"/>
      <use xlink:href="#DejaVuSans-31" x="1650.439453"/>
      <use xlink:href="#DejaVuSans-31" x="1714.0625"/>
      <use xlink:href="#DejaVuSans-32" x="1777.685547"/>
     </g>
    </g>
   </g>
  </g>
 </g>
 <defs>
  <clipPath id="p122625f6f3">
   <rect x="73.415" y="26.16" width="491.785" height="291.88"/>
  </clipPath>
 </defs>
</svg>
