<?xml version="1.0" encoding="utf-8" standalone="no"?>
<!DOCTYPE svg PUBLIC "-//W3C//DTD SVG 1.1//EN"
  "http://www.w3.org/Graphics/SVG/1.1/DTD/svg11.dtd">
<svg xmlns:xlink="http://www.w3.org/1999/xlink" width="720pt" height="432pt" viewBox="0 0 720 432" xmlns="http://www.w3.org/2000/svg" version="1.1">
 <metadata>
  <rdf:RDF xmlns:dc="http://purl.org/dc/elements/1.1/" xmlns:cc="http://creativecommons.org/ns#" xmlns:rdf="http://www.w3.org/1999/02/22-rdf-syntax-ns#">
   <cc:Work>
    <dc:type rdf:resource="http://purl.org/dc/dcmitype/StillImage"/>
    <dc:date>2025-06-25T12:09:41.548589</dc:date>
    <dc:format>image/svg+xml</dc:format>
    <dc:creator>
     <cc:Agent>
      <dc:title>Matplotlib v3.9.4, https://matplotlib.org/</dc:title>
     </cc:Agent>
    </dc:creator>
   </cc:Work>
  </rdf:RDF>
 </metadata>
 <defs>
  <style type="text/css">*{stroke-linejoin: round; stroke-linecap: butt}</style>
 </defs>
 <g id="figure_1">
  <g id="patch_1">
   <path d="M 0 432 
L 720 432 
L 720 0 
L 0 0 
z
" style="fill: #ffffff"/>
  </g>
  <g id="axes_1">
   <g id="patch_2">
    <path d="M 51.455 386.44 
L 705.097968 386.44 
L 705.097968 27.6 
L 51.455 27.6 
z
" style="fill: #ffffff"/>
   </g>
   <g id="patch_3">
    <path d="M 81.166044 386.44 
L 93.050462 386.44 
L 93.050462 377.89619 
L 81.166044 377.89619 
z
" clip-path="url(#p5c2b0c1110)" style="fill: #808080; opacity: 0.5"/>
   </g>
   <g id="patch_4">
    <path d="M 93.050462 386.44 
L 104.934879 386.44 
L 104.934879 386.44 
L 93.050462 386.44 
z
" clip-path="url(#p5c2b0c1110)" style="fill: #808080; opacity: 0.5"/>
   </g>
   <g id="patch_5">
    <path d="M 104.934879 386.44 
L 116.819297 386.44 
L 116.819297 377.89619 
L 104.934879 377.89619 
z
" clip-path="url(#p5c2b0c1110)" style="fill: #808080; opacity: 0.5"/>
   </g>
   <g id="patch_6">
    <path d="M 116.819297 386.44 
L 128.703714 386.44 
L 128.703714 386.44 
L 116.819297 386.44 
z
" clip-path="url(#p5c2b0c1110)" style="fill: #808080; opacity: 0.5"/>
   </g>
   <g id="patch_7">
    <path d="M 128.703714 386.44 
L 140.588132 386.44 
L 140.588132 365.080476 
L 128.703714 365.080476 
z
" clip-path="url(#p5c2b0c1110)" style="fill: #808080; opacity: 0.5"/>
   </g>
   <g id="patch_8">
    <path d="M 140.588132 386.44 
L 152.47255 386.44 
L 152.47255 369.352381 
L 140.588132 369.352381 
z
" clip-path="url(#p5c2b0c1110)" style="fill: #808080; opacity: 0.5"/>
   </g>
   <g id="patch_9">
    <path d="M 152.47255 386.44 
L 164.356967 386.44 
L 164.356967 365.080476 
L 152.47255 365.080476 
z
" clip-path="url(#p5c2b0c1110)" style="fill: #808080; opacity: 0.5"/>
   </g>
   <g id="patch_10">
    <path d="M 164.356967 386.44 
L 176.241385 386.44 
L 176.241385 365.080476 
L 164.356967 365.080476 
z
" clip-path="url(#p5c2b0c1110)" style="fill: #808080; opacity: 0.5"/>
   </g>
   <g id="patch_11">
    <path d="M 176.241385 386.44 
L 188.125802 386.44 
L 188.125802 365.080476 
L 176.241385 365.080476 
z
" clip-path="url(#p5c2b0c1110)" style="fill: #808080; opacity: 0.5"/>
   </g>
   <g id="patch_12">
    <path d="M 188.125802 386.44 
L 200.01022 386.44 
L 200.01022 352.264762 
L 188.125802 352.264762 
z
" clip-path="url(#p5c2b0c1110)" style="fill: #808080; opacity: 0.5"/>
   </g>
   <g id="patch_13">
    <path d="M 200.01022 386.44 
L 211.894638 386.44 
L 211.894638 347.992857 
L 200.01022 347.992857 
z
" clip-path="url(#p5c2b0c1110)" style="fill: #808080; opacity: 0.5"/>
   </g>
   <g id="patch_14">
    <path d="M 211.894638 386.44 
L 223.779055 386.44 
L 223.779055 326.633333 
L 211.894638 326.633333 
z
" clip-path="url(#p5c2b0c1110)" style="fill: #808080; opacity: 0.5"/>
   </g>
   <g id="patch_15">
    <path d="M 223.779055 386.44 
L 235.663473 386.44 
L 235.663473 330.905238 
L 223.779055 330.905238 
z
" clip-path="url(#p5c2b0c1110)" style="fill: #808080; opacity: 0.5"/>
   </g>
   <g id="patch_16">
    <path d="M 235.663473 386.44 
L 247.547891 386.44 
L 247.547891 275.370476 
L 235.663473 275.370476 
z
" clip-path="url(#p5c2b0c1110)" style="fill: #808080; opacity: 0.5"/>
   </g>
   <g id="patch_17">
    <path d="M 247.547891 386.44 
L 259.432308 386.44 
L 259.432308 292.458095 
L 247.547891 292.458095 
z
" clip-path="url(#p5c2b0c1110)" style="fill: #808080; opacity: 0.5"/>
   </g>
   <g id="patch_18">
    <path d="M 259.432308 386.44 
L 271.316726 386.44 
L 271.316726 271.098571 
L 259.432308 271.098571 
z
" clip-path="url(#p5c2b0c1110)" style="fill: #808080; opacity: 0.5"/>
   </g>
   <g id="patch_19">
    <path d="M 271.316726 386.44 
L 283.201143 386.44 
L 283.201143 266.826667 
L 271.316726 266.826667 
z
" clip-path="url(#p5c2b0c1110)" style="fill: #808080; opacity: 0.5"/>
   </g>
   <g id="patch_20">
    <path d="M 283.201143 386.44 
L 295.085561 386.44 
L 295.085561 283.914286 
L 283.201143 283.914286 
z
" clip-path="url(#p5c2b0c1110)" style="fill: #808080; opacity: 0.5"/>
   </g>
   <g id="patch_21">
    <path d="M 295.085561 386.44 
L 306.969979 386.44 
L 306.969979 266.826667 
L 295.085561 266.826667 
z
" clip-path="url(#p5c2b0c1110)" style="fill: #808080; opacity: 0.5"/>
   </g>
   <g id="patch_22">
    <path d="M 306.969979 386.44 
L 318.854396 386.44 
L 318.854396 245.467143 
L 306.969979 245.467143 
z
" clip-path="url(#p5c2b0c1110)" style="fill: #808080; opacity: 0.5"/>
   </g>
   <g id="patch_23">
    <path d="M 318.854396 386.44 
L 330.738814 386.44 
L 330.738814 245.467143 
L 318.854396 245.467143 
z
" clip-path="url(#p5c2b0c1110)" style="fill: #808080; opacity: 0.5"/>
   </g>
   <g id="patch_24">
    <path d="M 330.738814 386.44 
L 342.623231 386.44 
L 342.623231 262.554762 
L 330.738814 262.554762 
z
" clip-path="url(#p5c2b0c1110)" style="fill: #808080; opacity: 0.5"/>
   </g>
   <g id="patch_25">
    <path d="M 342.623231 386.44 
L 354.507649 386.44 
L 354.507649 249.739048 
L 342.623231 249.739048 
z
" clip-path="url(#p5c2b0c1110)" style="fill: #808080; opacity: 0.5"/>
   </g>
   <g id="patch_26">
    <path d="M 354.507649 386.44 
L 366.392067 386.44 
L 366.392067 224.107619 
L 354.507649 224.107619 
z
" clip-path="url(#p5c2b0c1110)" style="fill: #808080; opacity: 0.5"/>
   </g>
   <g id="patch_27">
    <path d="M 366.392067 386.44 
L 378.276484 386.44 
L 378.276484 198.47619 
L 366.392067 198.47619 
z
" clip-path="url(#p5c2b0c1110)" style="fill: #808080; opacity: 0.5"/>
   </g>
   <g id="patch_28">
    <path d="M 378.276484 386.44 
L 390.160902 386.44 
L 390.160902 198.47619 
L 378.276484 198.47619 
z
" clip-path="url(#p5c2b0c1110)" style="fill: #808080; opacity: 0.5"/>
   </g>
   <g id="patch_29">
    <path d="M 390.160902 386.44 
L 402.045319 386.44 
L 402.045319 160.029048 
L 390.160902 160.029048 
z
" clip-path="url(#p5c2b0c1110)" style="fill: #808080; opacity: 0.5"/>
   </g>
   <g id="patch_30">
    <path d="M 402.045319 386.44 
L 413.929737 386.44 
L 413.929737 164.300952 
L 402.045319 164.300952 
z
" clip-path="url(#p5c2b0c1110)" style="fill: #808080; opacity: 0.5"/>
   </g>
   <g id="patch_31">
    <path d="M 413.929737 386.44 
L 425.814155 386.44 
L 425.814155 138.669524 
L 413.929737 138.669524 
z
" clip-path="url(#p5c2b0c1110)" style="fill: #808080; opacity: 0.5"/>
   </g>
   <g id="patch_32">
    <path d="M 425.814155 386.44 
L 437.698572 386.44 
L 437.698572 155.757143 
L 425.814155 155.757143 
z
" clip-path="url(#p5c2b0c1110)" style="fill: #808080; opacity: 0.5"/>
   </g>
   <g id="patch_33">
    <path d="M 437.698572 386.44 
L 449.58299 386.44 
L 449.58299 125.85381 
L 437.698572 125.85381 
z
" clip-path="url(#p5c2b0c1110)" style="fill: #808080; opacity: 0.5"/>
   </g>
   <g id="patch_34">
    <path d="M 449.58299 386.44 
L 461.467407 386.44 
L 461.467407 95.950476 
L 449.58299 95.950476 
z
" clip-path="url(#p5c2b0c1110)" style="fill: #808080; opacity: 0.5"/>
   </g>
   <g id="patch_35">
    <path d="M 461.467407 386.44 
L 473.351825 386.44 
L 473.351825 44.687619 
L 461.467407 44.687619 
z
" clip-path="url(#p5c2b0c1110)" style="fill: #808080; opacity: 0.5"/>
   </g>
   <g id="patch_36">
    <path d="M 473.351825 386.44 
L 485.236243 386.44 
L 485.236243 91.678571 
L 473.351825 91.678571 
z
" clip-path="url(#p5c2b0c1110)" style="fill: #808080; opacity: 0.5"/>
   </g>
   <g id="patch_37">
    <path d="M 485.236243 386.44 
L 497.12066 386.44 
L 497.12066 78.862857 
L 485.236243 78.862857 
z
" clip-path="url(#p5c2b0c1110)" style="fill: #808080; opacity: 0.5"/>
   </g>
   <g id="patch_38">
    <path d="M 497.12066 386.44 
L 509.005078 386.44 
L 509.005078 87.406667 
L 497.12066 87.406667 
z
" clip-path="url(#p5c2b0c1110)" style="fill: #808080; opacity: 0.5"/>
   </g>
   <g id="patch_39">
    <path d="M 509.005078 386.44 
L 520.889495 386.44 
L 520.889495 125.85381 
L 509.005078 125.85381 
z
" clip-path="url(#p5c2b0c1110)" style="fill: #808080; opacity: 0.5"/>
   </g>
   <g id="patch_40">
    <path d="M 520.889495 386.44 
L 532.773913 386.44 
L 532.773913 172.844762 
L 520.889495 172.844762 
z
" clip-path="url(#p5c2b0c1110)" style="fill: #808080; opacity: 0.5"/>
   </g>
   <g id="patch_41">
    <path d="M 532.773913 386.44 
L 544.658331 386.44 
L 544.658331 228.379524 
L 532.773913 228.379524 
z
" clip-path="url(#p5c2b0c1110)" style="fill: #808080; opacity: 0.5"/>
   </g>
   <g id="patch_42">
    <path d="M 544.658331 386.44 
L 556.542748 386.44 
L 556.542748 232.651429 
L 544.658331 232.651429 
z
" clip-path="url(#p5c2b0c1110)" style="fill: #808080; opacity: 0.5"/>
   </g>
   <g id="patch_43">
    <path d="M 556.542748 386.44 
L 568.427166 386.44 
L 568.427166 271.098571 
L 556.542748 271.098571 
z
" clip-path="url(#p5c2b0c1110)" style="fill: #808080; opacity: 0.5"/>
   </g>
   <g id="patch_44">
    <path d="M 568.427166 386.44 
L 580.311584 386.44 
L 580.311584 313.817619 
L 568.427166 313.817619 
z
" clip-path="url(#p5c2b0c1110)" style="fill: #808080; opacity: 0.5"/>
   </g>
   <g id="patch_45">
    <path d="M 580.311584 386.44 
L 592.196001 386.44 
L 592.196001 335.177143 
L 580.311584 335.177143 
z
" clip-path="url(#p5c2b0c1110)" style="fill: #808080; opacity: 0.5"/>
   </g>
   <g id="patch_46">
    <path d="M 592.196001 386.44 
L 604.080419 386.44 
L 604.080419 365.080476 
L 592.196001 365.080476 
z
" clip-path="url(#p5c2b0c1110)" style="fill: #808080; opacity: 0.5"/>
   </g>
   <g id="patch_47">
    <path d="M 604.080419 386.44 
L 615.964836 386.44 
L 615.964836 373.624286 
L 604.080419 373.624286 
z
" clip-path="url(#p5c2b0c1110)" style="fill: #808080; opacity: 0.5"/>
   </g>
   <g id="patch_48">
    <path d="M 615.964836 386.44 
L 627.849254 386.44 
L 627.849254 343.720952 
L 615.964836 343.720952 
z
" clip-path="url(#p5c2b0c1110)" style="fill: #808080; opacity: 0.5"/>
   </g>
   <g id="patch_49">
    <path d="M 627.849254 386.44 
L 639.733672 386.44 
L 639.733672 369.352381 
L 627.849254 369.352381 
z
" clip-path="url(#p5c2b0c1110)" style="fill: #808080; opacity: 0.5"/>
   </g>
   <g id="patch_50">
    <path d="M 639.733672 386.44 
L 651.618089 386.44 
L 651.618089 377.89619 
L 639.733672 377.89619 
z
" clip-path="url(#p5c2b0c1110)" style="fill: #808080; opacity: 0.5"/>
   </g>
   <g id="patch_51">
    <path d="M 651.618089 386.44 
L 663.502507 386.44 
L 663.502507 382.168095 
L 651.618089 382.168095 
z
" clip-path="url(#p5c2b0c1110)" style="fill: #808080; opacity: 0.5"/>
   </g>
   <g id="patch_52">
    <path d="M 663.502507 386.44 
L 675.386924 386.44 
L 675.386924 382.168095 
L 663.502507 382.168095 
z
" clip-path="url(#p5c2b0c1110)" style="fill: #808080; opacity: 0.5"/>
   </g>
   <g id="matplotlib.axis_1">
    <g id="xtick_1">
     <g id="line2d_1">
      <defs>
       <path id="m627017975c" d="M 0 0 
L 0 3.5 
" style="stroke: #000000; stroke-width: 0.8"/>
      </defs>
      <g>
       <use xlink:href="#m627017975c" x="113.988243" y="386.44" style="stroke: #000000; stroke-width: 0.8"/>
      </g>
     </g>
     <g id="text_1">
      <!-- −1.5 -->
      <g transform="translate(101.846836 401.038437) scale(0.1 -0.1)">
       <defs>
        <path id="DejaVuSans-2212" d="M 678 2272 
L 4684 2272 
L 4684 1741 
L 678 1741 
L 678 2272 
z
" transform="scale(0.015625)"/>
        <path id="DejaVuSans-31" d="M 794 531 
L 1825 531 
L 1825 4091 
L 703 3866 
L 703 4441 
L 1819 4666 
L 2450 4666 
L 2450 531 
L 3481 531 
L 3481 0 
L 794 0 
L 794 531 
z
" transform="scale(0.015625)"/>
        <path id="DejaVuSans-2e" d="M 684 794 
L 1344 794 
L 1344 0 
L 684 0 
L 684 794 
z
" transform="scale(0.015625)"/>
        <path id="DejaVuSans-35" d="M 691 4666 
L 3169 4666 
L 3169 4134 
L 1269 4134 
L 1269 2991 
Q 1406 3038 1543 3061 
Q 1681 3084 1819 3084 
Q 2600 3084 3056 2656 
Q 3513 2228 3513 1497 
Q 3513 744 3044 326 
Q 2575 -91 1722 -91 
Q 1428 -91 1123 -41 
Q 819 9 494 109 
L 494 744 
Q 775 591 1075 516 
Q 1375 441 1709 441 
Q 2250 441 2565 725 
Q 2881 1009 2881 1497 
Q 2881 1984 2565 2268 
Q 2250 2553 1709 2553 
Q 1456 2553 1204 2497 
Q 953 2441 691 2322 
L 691 4666 
z
" transform="scale(0.015625)"/>
       </defs>
       <use xlink:href="#DejaVuSans-2212"/>
       <use xlink:href="#DejaVuSans-31" x="83.789062"/>
       <use xlink:href="#DejaVuSans-2e" x="147.412109"/>
       <use xlink:href="#DejaVuSans-35" x="179.199219"/>
      </g>
     </g>
    </g>
    <g id="xtick_2">
     <g id="line2d_2">
      <g>
       <use xlink:href="#m627017975c" x="197.786047" y="386.44" style="stroke: #000000; stroke-width: 0.8"/>
      </g>
     </g>
     <g id="text_2">
      <!-- −1.0 -->
      <g transform="translate(185.644641 401.038437) scale(0.1 -0.1)">
       <defs>
        <path id="DejaVuSans-30" d="M 2034 4250 
Q 1547 4250 1301 3770 
Q 1056 3291 1056 2328 
Q 1056 1369 1301 889 
Q 1547 409 2034 409 
Q 2525 409 2770 889 
Q 3016 1369 3016 2328 
Q 3016 3291 2770 3770 
Q 2525 4250 2034 4250 
z
M 2034 4750 
Q 2819 4750 3233 4129 
Q 3647 3509 3647 2328 
Q 3647 1150 3233 529 
Q 2819 -91 2034 -91 
Q 1250 -91 836 529 
Q 422 1150 422 2328 
Q 422 3509 836 4129 
Q 1250 4750 2034 4750 
z
" transform="scale(0.015625)"/>
       </defs>
       <use xlink:href="#DejaVuSans-2212"/>
       <use xlink:href="#DejaVuSans-31" x="83.789062"/>
       <use xlink:href="#DejaVuSans-2e" x="147.412109"/>
       <use xlink:href="#DejaVuSans-30" x="179.199219"/>
      </g>
     </g>
    </g>
    <g id="xtick_3">
     <g id="line2d_3">
      <g>
       <use xlink:href="#m627017975c" x="281.583852" y="386.44" style="stroke: #000000; stroke-width: 0.8"/>
      </g>
     </g>
     <g id="text_3">
      <!-- −0.5 -->
      <g transform="translate(269.442446 401.038437) scale(0.1 -0.1)">
       <use xlink:href="#DejaVuSans-2212"/>
       <use xlink:href="#DejaVuSans-30" x="83.789062"/>
       <use xlink:href="#DejaVuSans-2e" x="147.412109"/>
       <use xlink:href="#DejaVuSans-35" x="179.199219"/>
      </g>
     </g>
    </g>
    <g id="xtick_4">
     <g id="line2d_4">
      <g>
       <use xlink:href="#m627017975c" x="365.381657" y="386.44" style="stroke: #000000; stroke-width: 0.8"/>
      </g>
     </g>
     <g id="text_4">
      <!-- 0.0 -->
      <g transform="translate(357.430094 401.038437) scale(0.1 -0.1)">
       <use xlink:href="#DejaVuSans-30"/>
       <use xlink:href="#DejaVuSans-2e" x="63.623047"/>
       <use xlink:href="#DejaVuSans-30" x="95.410156"/>
      </g>
     </g>
    </g>
    <g id="xtick_5">
     <g id="line2d_5">
      <g>
       <use xlink:href="#m627017975c" x="449.179461" y="386.44" style="stroke: #000000; stroke-width: 0.8"/>
      </g>
     </g>
     <g id="text_5">
      <!-- 0.5 -->
      <g transform="translate(441.227899 401.038437) scale(0.1 -0.1)">
       <use xlink:href="#DejaVuSans-30"/>
       <use xlink:href="#DejaVuSans-2e" x="63.623047"/>
       <use xlink:href="#DejaVuSans-35" x="95.410156"/>
      </g>
     </g>
    </g>
    <g id="xtick_6">
     <g id="line2d_6">
      <g>
       <use xlink:href="#m627017975c" x="532.977266" y="386.44" style="stroke: #000000; stroke-width: 0.8"/>
      </g>
     </g>
     <g id="text_6">
      <!-- 1.0 -->
      <g transform="translate(525.025703 401.038437) scale(0.1 -0.1)">
       <use xlink:href="#DejaVuSans-31"/>
       <use xlink:href="#DejaVuSans-2e" x="63.623047"/>
       <use xlink:href="#DejaVuSans-30" x="95.410156"/>
      </g>
     </g>
    </g>
    <g id="xtick_7">
     <g id="line2d_7">
      <g>
       <use xlink:href="#m627017975c" x="616.77507" y="386.44" style="stroke: #000000; stroke-width: 0.8"/>
      </g>
     </g>
     <g id="text_7">
      <!-- 1.5 -->
      <g transform="translate(608.823508 401.038437) scale(0.1 -0.1)">
       <use xlink:href="#DejaVuSans-31"/>
       <use xlink:href="#DejaVuSans-2e" x="63.623047"/>
       <use xlink:href="#DejaVuSans-35" x="95.410156"/>
      </g>
     </g>
    </g>
    <g id="xtick_8">
     <g id="line2d_8">
      <g>
       <use xlink:href="#m627017975c" x="700.572875" y="386.44" style="stroke: #000000; stroke-width: 0.8"/>
      </g>
     </g>
     <g id="text_8">
      <!-- 2.0 -->
      <g transform="translate(692.621312 401.038437) scale(0.1 -0.1)">
       <defs>
        <path id="DejaVuSans-32" d="M 1228 531 
L 3431 531 
L 3431 0 
L 469 0 
L 469 531 
Q 828 903 1448 1529 
Q 2069 2156 2228 2338 
Q 2531 2678 2651 2914 
Q 2772 3150 2772 3378 
Q 2772 3750 2511 3984 
Q 2250 4219 1831 4219 
Q 1534 4219 1204 4116 
Q 875 4013 500 3803 
L 500 4441 
Q 881 4594 1212 4672 
Q 1544 4750 1819 4750 
Q 2544 4750 2975 4387 
Q 3406 4025 3406 3419 
Q 3406 3131 3298 2873 
Q 3191 2616 2906 2266 
Q 2828 2175 2409 1742 
Q 1991 1309 1228 531 
z
" transform="scale(0.015625)"/>
       </defs>
       <use xlink:href="#DejaVuSans-32"/>
       <use xlink:href="#DejaVuSans-2e" x="63.623047"/>
       <use xlink:href="#DejaVuSans-30" x="95.410156"/>
      </g>
     </g>
    </g>
    <g id="text_9">
     <!-- log(Radius of Gyration) -->
     <g transform="translate(297.335703 417.755938) scale(0.14 -0.14)">
      <defs>
       <path id="DejaVuSans-6c" d="M 603 4863 
L 1178 4863 
L 1178 0 
L 603 0 
L 603 4863 
z
" transform="scale(0.015625)"/>
       <path id="DejaVuSans-6f" d="M 1959 3097 
Q 1497 3097 1228 2736 
Q 959 2375 959 1747 
Q 959 1119 1226 758 
Q 1494 397 1959 397 
Q 2419 397 2687 759 
Q 2956 1122 2956 1747 
Q 2956 2369 2687 2733 
Q 2419 3097 1959 3097 
z
M 1959 3584 
Q 2709 3584 3137 3096 
Q 3566 2609 3566 1747 
Q 3566 888 3137 398 
Q 2709 -91 1959 -91 
Q 1206 -91 779 398 
Q 353 888 353 1747 
Q 353 2609 779 3096 
Q 1206 3584 1959 3584 
z
" transform="scale(0.015625)"/>
       <path id="DejaVuSans-67" d="M 2906 1791 
Q 2906 2416 2648 2759 
Q 2391 3103 1925 3103 
Q 1463 3103 1205 2759 
Q 947 2416 947 1791 
Q 947 1169 1205 825 
Q 1463 481 1925 481 
Q 2391 481 2648 825 
Q 2906 1169 2906 1791 
z
M 3481 434 
Q 3481 -459 3084 -895 
Q 2688 -1331 1869 -1331 
Q 1566 -1331 1297 -1286 
Q 1028 -1241 775 -1147 
L 775 -588 
Q 1028 -725 1275 -790 
Q 1522 -856 1778 -856 
Q 2344 -856 2625 -561 
Q 2906 -266 2906 331 
L 2906 616 
Q 2728 306 2450 153 
Q 2172 0 1784 0 
Q 1141 0 747 490 
Q 353 981 353 1791 
Q 353 2603 747 3093 
Q 1141 3584 1784 3584 
Q 2172 3584 2450 3431 
Q 2728 3278 2906 2969 
L 2906 3500 
L 3481 3500 
L 3481 434 
z
" transform="scale(0.015625)"/>
       <path id="DejaVuSans-28" d="M 1984 4856 
Q 1566 4138 1362 3434 
Q 1159 2731 1159 2009 
Q 1159 1288 1364 580 
Q 1569 -128 1984 -844 
L 1484 -844 
Q 1016 -109 783 600 
Q 550 1309 550 2009 
Q 550 2706 781 3412 
Q 1013 4119 1484 4856 
L 1984 4856 
z
" transform="scale(0.015625)"/>
       <path id="DejaVuSans-52" d="M 2841 2188 
Q 3044 2119 3236 1894 
Q 3428 1669 3622 1275 
L 4263 0 
L 3584 0 
L 2988 1197 
Q 2756 1666 2539 1819 
Q 2322 1972 1947 1972 
L 1259 1972 
L 1259 0 
L 628 0 
L 628 4666 
L 2053 4666 
Q 2853 4666 3247 4331 
Q 3641 3997 3641 3322 
Q 3641 2881 3436 2590 
Q 3231 2300 2841 2188 
z
M 1259 4147 
L 1259 2491 
L 2053 2491 
Q 2509 2491 2742 2702 
Q 2975 2913 2975 3322 
Q 2975 3731 2742 3939 
Q 2509 4147 2053 4147 
L 1259 4147 
z
" transform="scale(0.015625)"/>
       <path id="DejaVuSans-61" d="M 2194 1759 
Q 1497 1759 1228 1600 
Q 959 1441 959 1056 
Q 959 750 1161 570 
Q 1363 391 1709 391 
Q 2188 391 2477 730 
Q 2766 1069 2766 1631 
L 2766 1759 
L 2194 1759 
z
M 3341 1997 
L 3341 0 
L 2766 0 
L 2766 531 
Q 2569 213 2275 61 
Q 1981 -91 1556 -91 
Q 1019 -91 701 211 
Q 384 513 384 1019 
Q 384 1609 779 1909 
Q 1175 2209 1959 2209 
L 2766 2209 
L 2766 2266 
Q 2766 2663 2505 2880 
Q 2244 3097 1772 3097 
Q 1472 3097 1187 3025 
Q 903 2953 641 2809 
L 641 3341 
Q 956 3463 1253 3523 
Q 1550 3584 1831 3584 
Q 2591 3584 2966 3190 
Q 3341 2797 3341 1997 
z
" transform="scale(0.015625)"/>
       <path id="DejaVuSans-64" d="M 2906 2969 
L 2906 4863 
L 3481 4863 
L 3481 0 
L 2906 0 
L 2906 525 
Q 2725 213 2448 61 
Q 2172 -91 1784 -91 
Q 1150 -91 751 415 
Q 353 922 353 1747 
Q 353 2572 751 3078 
Q 1150 3584 1784 3584 
Q 2172 3584 2448 3432 
Q 2725 3281 2906 2969 
z
M 947 1747 
Q 947 1113 1208 752 
Q 1469 391 1925 391 
Q 2381 391 2643 752 
Q 2906 1113 2906 1747 
Q 2906 2381 2643 2742 
Q 2381 3103 1925 3103 
Q 1469 3103 1208 2742 
Q 947 2381 947 1747 
z
" transform="scale(0.015625)"/>
       <path id="DejaVuSans-69" d="M 603 3500 
L 1178 3500 
L 1178 0 
L 603 0 
L 603 3500 
z
M 603 4863 
L 1178 4863 
L 1178 4134 
L 603 4134 
L 603 4863 
z
" transform="scale(0.015625)"/>
       <path id="DejaVuSans-75" d="M 544 1381 
L 544 3500 
L 1119 3500 
L 1119 1403 
Q 1119 906 1312 657 
Q 1506 409 1894 409 
Q 2359 409 2629 706 
Q 2900 1003 2900 1516 
L 2900 3500 
L 3475 3500 
L 3475 0 
L 2900 0 
L 2900 538 
Q 2691 219 2414 64 
Q 2138 -91 1772 -91 
Q 1169 -91 856 284 
Q 544 659 544 1381 
z
M 1991 3584 
L 1991 3584 
z
" transform="scale(0.015625)"/>
       <path id="DejaVuSans-73" d="M 2834 3397 
L 2834 2853 
Q 2591 2978 2328 3040 
Q 2066 3103 1784 3103 
Q 1356 3103 1142 2972 
Q 928 2841 928 2578 
Q 928 2378 1081 2264 
Q 1234 2150 1697 2047 
L 1894 2003 
Q 2506 1872 2764 1633 
Q 3022 1394 3022 966 
Q 3022 478 2636 193 
Q 2250 -91 1575 -91 
Q 1294 -91 989 -36 
Q 684 19 347 128 
L 347 722 
Q 666 556 975 473 
Q 1284 391 1588 391 
Q 1994 391 2212 530 
Q 2431 669 2431 922 
Q 2431 1156 2273 1281 
Q 2116 1406 1581 1522 
L 1381 1569 
Q 847 1681 609 1914 
Q 372 2147 372 2553 
Q 372 3047 722 3315 
Q 1072 3584 1716 3584 
Q 2034 3584 2315 3537 
Q 2597 3491 2834 3397 
z
" transform="scale(0.015625)"/>
       <path id="DejaVuSans-20" transform="scale(0.015625)"/>
       <path id="DejaVuSans-66" d="M 2375 4863 
L 2375 4384 
L 1825 4384 
Q 1516 4384 1395 4259 
Q 1275 4134 1275 3809 
L 1275 3500 
L 2222 3500 
L 2222 3053 
L 1275 3053 
L 1275 0 
L 697 0 
L 697 3053 
L 147 3053 
L 147 3500 
L 697 3500 
L 697 3744 
Q 697 4328 969 4595 
Q 1241 4863 1831 4863 
L 2375 4863 
z
" transform="scale(0.015625)"/>
       <path id="DejaVuSans-47" d="M 3809 666 
L 3809 1919 
L 2778 1919 
L 2778 2438 
L 4434 2438 
L 4434 434 
Q 4069 175 3628 42 
Q 3188 -91 2688 -91 
Q 1594 -91 976 548 
Q 359 1188 359 2328 
Q 359 3472 976 4111 
Q 1594 4750 2688 4750 
Q 3144 4750 3555 4637 
Q 3966 4525 4313 4306 
L 4313 3634 
Q 3963 3931 3569 4081 
Q 3175 4231 2741 4231 
Q 1884 4231 1454 3753 
Q 1025 3275 1025 2328 
Q 1025 1384 1454 906 
Q 1884 428 2741 428 
Q 3075 428 3337 486 
Q 3600 544 3809 666 
z
" transform="scale(0.015625)"/>
       <path id="DejaVuSans-79" d="M 2059 -325 
Q 1816 -950 1584 -1140 
Q 1353 -1331 966 -1331 
L 506 -1331 
L 506 -850 
L 844 -850 
Q 1081 -850 1212 -737 
Q 1344 -625 1503 -206 
L 1606 56 
L 191 3500 
L 800 3500 
L 1894 763 
L 2988 3500 
L 3597 3500 
L 2059 -325 
z
" transform="scale(0.015625)"/>
       <path id="DejaVuSans-72" d="M 2631 2963 
Q 2534 3019 2420 3045 
Q 2306 3072 2169 3072 
Q 1681 3072 1420 2755 
Q 1159 2438 1159 1844 
L 1159 0 
L 581 0 
L 581 3500 
L 1159 3500 
L 1159 2956 
Q 1341 3275 1631 3429 
Q 1922 3584 2338 3584 
Q 2397 3584 2469 3576 
Q 2541 3569 2628 3553 
L 2631 2963 
z
" transform="scale(0.015625)"/>
       <path id="DejaVuSans-74" d="M 1172 4494 
L 1172 3500 
L 2356 3500 
L 2356 3053 
L 1172 3053 
L 1172 1153 
Q 1172 725 1289 603 
Q 1406 481 1766 481 
L 2356 481 
L 2356 0 
L 1766 0 
Q 1100 0 847 248 
Q 594 497 594 1153 
L 594 3053 
L 172 3053 
L 172 3500 
L 594 3500 
L 594 4494 
L 1172 4494 
z
" transform="scale(0.015625)"/>
       <path id="DejaVuSans-6e" d="M 3513 2113 
L 3513 0 
L 2938 0 
L 2938 2094 
Q 2938 2591 2744 2837 
Q 2550 3084 2163 3084 
Q 1697 3084 1428 2787 
Q 1159 2491 1159 1978 
L 1159 0 
L 581 0 
L 581 3500 
L 1159 3500 
L 1159 2956 
Q 1366 3272 1645 3428 
Q 1925 3584 2291 3584 
Q 2894 3584 3203 3211 
Q 3513 2838 3513 2113 
z
" transform="scale(0.015625)"/>
       <path id="DejaVuSans-29" d="M 513 4856 
L 1013 4856 
Q 1481 4119 1714 3412 
Q 1947 2706 1947 2009 
Q 1947 1309 1714 600 
Q 1481 -109 1013 -844 
L 513 -844 
Q 928 -128 1133 580 
Q 1338 1288 1338 2009 
Q 1338 2731 1133 3434 
Q 928 4138 513 4856 
z
" transform="scale(0.015625)"/>
      </defs>
      <use xlink:href="#DejaVuSans-6c"/>
      <use xlink:href="#DejaVuSans-6f" x="27.783203"/>
      <use xlink:href="#DejaVuSans-67" x="88.964844"/>
      <use xlink:href="#DejaVuSans-28" x="152.441406"/>
      <use xlink:href="#DejaVuSans-52" x="191.455078"/>
      <use xlink:href="#DejaVuSans-61" x="258.6875"/>
      <use xlink:href="#DejaVuSans-64" x="319.966797"/>
      <use xlink:href="#DejaVuSans-69" x="383.443359"/>
      <use xlink:href="#DejaVuSans-75" x="411.226562"/>
      <use xlink:href="#DejaVuSans-73" x="474.605469"/>
      <use xlink:href="#DejaVuSans-20" x="526.705078"/>
      <use xlink:href="#DejaVuSans-6f" x="558.492188"/>
      <use xlink:href="#DejaVuSans-66" x="619.673828"/>
      <use xlink:href="#DejaVuSans-20" x="654.878906"/>
      <use xlink:href="#DejaVuSans-47" x="686.666016"/>
      <use xlink:href="#DejaVuSans-79" x="764.15625"/>
      <use xlink:href="#DejaVuSans-72" x="823.335938"/>
      <use xlink:href="#DejaVuSans-61" x="864.449219"/>
      <use xlink:href="#DejaVuSans-74" x="925.728516"/>
      <use xlink:href="#DejaVuSans-69" x="964.9375"/>
      <use xlink:href="#DejaVuSans-6f" x="992.720703"/>
      <use xlink:href="#DejaVuSans-6e" x="1053.902344"/>
      <use xlink:href="#DejaVuSans-29" x="1117.28125"/>
     </g>
    </g>
   </g>
   <g id="matplotlib.axis_2">
    <g id="ytick_1">
     <g id="line2d_9">
      <defs>
       <path id="m9a2f501269" d="M 0 0 
L -3.5 0 
" style="stroke: #000000; stroke-width: 0.8"/>
      </defs>
      <g>
       <use xlink:href="#m9a2f501269" x="51.455" y="386.44" style="stroke: #000000; stroke-width: 0.8"/>
      </g>
     </g>
     <g id="text_10">
      <!-- 0.0 -->
      <g transform="translate(28.551875 390.239219) scale(0.1 -0.1)">
       <use xlink:href="#DejaVuSans-30"/>
       <use xlink:href="#DejaVuSans-2e" x="63.623047"/>
       <use xlink:href="#DejaVuSans-30" x="95.410156"/>
      </g>
     </g>
    </g>
    <g id="ytick_2">
     <g id="line2d_10">
      <g>
       <use xlink:href="#m9a2f501269" x="51.455" y="344.545307" style="stroke: #000000; stroke-width: 0.8"/>
      </g>
     </g>
     <g id="text_11">
      <!-- 0.1 -->
      <g transform="translate(28.551875 348.344526) scale(0.1 -0.1)">
       <use xlink:href="#DejaVuSans-30"/>
       <use xlink:href="#DejaVuSans-2e" x="63.623047"/>
       <use xlink:href="#DejaVuSans-31" x="95.410156"/>
      </g>
     </g>
    </g>
    <g id="ytick_3">
     <g id="line2d_11">
      <g>
       <use xlink:href="#m9a2f501269" x="51.455" y="302.650615" style="stroke: #000000; stroke-width: 0.8"/>
      </g>
     </g>
     <g id="text_12">
      <!-- 0.2 -->
      <g transform="translate(28.551875 306.449833) scale(0.1 -0.1)">
       <use xlink:href="#DejaVuSans-30"/>
       <use xlink:href="#DejaVuSans-2e" x="63.623047"/>
       <use xlink:href="#DejaVuSans-32" x="95.410156"/>
      </g>
     </g>
    </g>
    <g id="ytick_4">
     <g id="line2d_12">
      <g>
       <use xlink:href="#m9a2f501269" x="51.455" y="260.755922" style="stroke: #000000; stroke-width: 0.8"/>
      </g>
     </g>
     <g id="text_13">
      <!-- 0.3 -->
      <g transform="translate(28.551875 264.555141) scale(0.1 -0.1)">
       <defs>
        <path id="DejaVuSans-33" d="M 2597 2516 
Q 3050 2419 3304 2112 
Q 3559 1806 3559 1356 
Q 3559 666 3084 287 
Q 2609 -91 1734 -91 
Q 1441 -91 1130 -33 
Q 819 25 488 141 
L 488 750 
Q 750 597 1062 519 
Q 1375 441 1716 441 
Q 2309 441 2620 675 
Q 2931 909 2931 1356 
Q 2931 1769 2642 2001 
Q 2353 2234 1838 2234 
L 1294 2234 
L 1294 2753 
L 1863 2753 
Q 2328 2753 2575 2939 
Q 2822 3125 2822 3475 
Q 2822 3834 2567 4026 
Q 2313 4219 1838 4219 
Q 1578 4219 1281 4162 
Q 984 4106 628 3988 
L 628 4550 
Q 988 4650 1302 4700 
Q 1616 4750 1894 4750 
Q 2613 4750 3031 4423 
Q 3450 4097 3450 3541 
Q 3450 3153 3228 2886 
Q 3006 2619 2597 2516 
z
" transform="scale(0.015625)"/>
       </defs>
       <use xlink:href="#DejaVuSans-30"/>
       <use xlink:href="#DejaVuSans-2e" x="63.623047"/>
       <use xlink:href="#DejaVuSans-33" x="95.410156"/>
      </g>
     </g>
    </g>
    <g id="ytick_5">
     <g id="line2d_13">
      <g>
       <use xlink:href="#m9a2f501269" x="51.455" y="218.861229" style="stroke: #000000; stroke-width: 0.8"/>
      </g>
     </g>
     <g id="text_14">
      <!-- 0.4 -->
      <g transform="translate(28.551875 222.660448) scale(0.1 -0.1)">
       <defs>
        <path id="DejaVuSans-34" d="M 2419 4116 
L 825 1625 
L 2419 1625 
L 2419 4116 
z
M 2253 4666 
L 3047 4666 
L 3047 1625 
L 3713 1625 
L 3713 1100 
L 3047 1100 
L 3047 0 
L 2419 0 
L 2419 1100 
L 313 1100 
L 313 1709 
L 2253 4666 
z
" transform="scale(0.015625)"/>
       </defs>
       <use xlink:href="#DejaVuSans-30"/>
       <use xlink:href="#DejaVuSans-2e" x="63.623047"/>
       <use xlink:href="#DejaVuSans-34" x="95.410156"/>
      </g>
     </g>
    </g>
    <g id="ytick_6">
     <g id="line2d_14">
      <g>
       <use xlink:href="#m9a2f501269" x="51.455" y="176.966536" style="stroke: #000000; stroke-width: 0.8"/>
      </g>
     </g>
     <g id="text_15">
      <!-- 0.5 -->
      <g transform="translate(28.551875 180.765755) scale(0.1 -0.1)">
       <use xlink:href="#DejaVuSans-30"/>
       <use xlink:href="#DejaVuSans-2e" x="63.623047"/>
       <use xlink:href="#DejaVuSans-35" x="95.410156"/>
      </g>
     </g>
    </g>
    <g id="ytick_7">
     <g id="line2d_15">
      <g>
       <use xlink:href="#m9a2f501269" x="51.455" y="135.071844" style="stroke: #000000; stroke-width: 0.8"/>
      </g>
     </g>
     <g id="text_16">
      <!-- 0.6 -->
      <g transform="translate(28.551875 138.871062) scale(0.1 -0.1)">
       <defs>
        <path id="DejaVuSans-36" d="M 2113 2584 
Q 1688 2584 1439 2293 
Q 1191 2003 1191 1497 
Q 1191 994 1439 701 
Q 1688 409 2113 409 
Q 2538 409 2786 701 
Q 3034 994 3034 1497 
Q 3034 2003 2786 2293 
Q 2538 2584 2113 2584 
z
M 3366 4563 
L 3366 3988 
Q 3128 4100 2886 4159 
Q 2644 4219 2406 4219 
Q 1781 4219 1451 3797 
Q 1122 3375 1075 2522 
Q 1259 2794 1537 2939 
Q 1816 3084 2150 3084 
Q 2853 3084 3261 2657 
Q 3669 2231 3669 1497 
Q 3669 778 3244 343 
Q 2819 -91 2113 -91 
Q 1303 -91 875 529 
Q 447 1150 447 2328 
Q 447 3434 972 4092 
Q 1497 4750 2381 4750 
Q 2619 4750 2861 4703 
Q 3103 4656 3366 4563 
z
" transform="scale(0.015625)"/>
       </defs>
       <use xlink:href="#DejaVuSans-30"/>
       <use xlink:href="#DejaVuSans-2e" x="63.623047"/>
       <use xlink:href="#DejaVuSans-36" x="95.410156"/>
      </g>
     </g>
    </g>
    <g id="ytick_8">
     <g id="line2d_16">
      <g>
       <use xlink:href="#m9a2f501269" x="51.455" y="93.177151" style="stroke: #000000; stroke-width: 0.8"/>
      </g>
     </g>
     <g id="text_17">
      <!-- 0.7 -->
      <g transform="translate(28.551875 96.97637) scale(0.1 -0.1)">
       <defs>
        <path id="DejaVuSans-37" d="M 525 4666 
L 3525 4666 
L 3525 4397 
L 1831 0 
L 1172 0 
L 2766 4134 
L 525 4134 
L 525 4666 
z
" transform="scale(0.015625)"/>
       </defs>
       <use xlink:href="#DejaVuSans-30"/>
       <use xlink:href="#DejaVuSans-2e" x="63.623047"/>
       <use xlink:href="#DejaVuSans-37" x="95.410156"/>
      </g>
     </g>
    </g>
    <g id="ytick_9">
     <g id="line2d_17">
      <g>
       <use xlink:href="#m9a2f501269" x="51.455" y="51.282458" style="stroke: #000000; stroke-width: 0.8"/>
      </g>
     </g>
     <g id="text_18">
      <!-- 0.8 -->
      <g transform="translate(28.551875 55.081677) scale(0.1 -0.1)">
       <defs>
        <path id="DejaVuSans-38" d="M 2034 2216 
Q 1584 2216 1326 1975 
Q 1069 1734 1069 1313 
Q 1069 891 1326 650 
Q 1584 409 2034 409 
Q 2484 409 2743 651 
Q 3003 894 3003 1313 
Q 3003 1734 2745 1975 
Q 2488 2216 2034 2216 
z
M 1403 2484 
Q 997 2584 770 2862 
Q 544 3141 544 3541 
Q 544 4100 942 4425 
Q 1341 4750 2034 4750 
Q 2731 4750 3128 4425 
Q 3525 4100 3525 3541 
Q 3525 3141 3298 2862 
Q 3072 2584 2669 2484 
Q 3125 2378 3379 2068 
Q 3634 1759 3634 1313 
Q 3634 634 3220 271 
Q 2806 -91 2034 -91 
Q 1263 -91 848 271 
Q 434 634 434 1313 
Q 434 1759 690 2068 
Q 947 2378 1403 2484 
z
M 1172 3481 
Q 1172 3119 1398 2916 
Q 1625 2713 2034 2713 
Q 2441 2713 2670 2916 
Q 2900 3119 2900 3481 
Q 2900 3844 2670 4047 
Q 2441 4250 2034 4250 
Q 1625 4250 1398 4047 
Q 1172 3844 1172 3481 
z
" transform="scale(0.015625)"/>
       </defs>
       <use xlink:href="#DejaVuSans-30"/>
       <use xlink:href="#DejaVuSans-2e" x="63.623047"/>
       <use xlink:href="#DejaVuSans-38" x="95.410156"/>
      </g>
     </g>
    </g>
    <g id="text_19">
     <!-- Density -->
     <g transform="translate(21.640312 233.632031) rotate(-90) scale(0.14 -0.14)">
      <defs>
       <path id="DejaVuSans-44" d="M 1259 4147 
L 1259 519 
L 2022 519 
Q 2988 519 3436 956 
Q 3884 1394 3884 2338 
Q 3884 3275 3436 3711 
Q 2988 4147 2022 4147 
L 1259 4147 
z
M 628 4666 
L 1925 4666 
Q 3281 4666 3915 4102 
Q 4550 3538 4550 2338 
Q 4550 1131 3912 565 
Q 3275 0 1925 0 
L 628 0 
L 628 4666 
z
" transform="scale(0.015625)"/>
       <path id="DejaVuSans-65" d="M 3597 1894 
L 3597 1613 
L 953 1613 
Q 991 1019 1311 708 
Q 1631 397 2203 397 
Q 2534 397 2845 478 
Q 3156 559 3463 722 
L 3463 178 
Q 3153 47 2828 -22 
Q 2503 -91 2169 -91 
Q 1331 -91 842 396 
Q 353 884 353 1716 
Q 353 2575 817 3079 
Q 1281 3584 2069 3584 
Q 2775 3584 3186 3129 
Q 3597 2675 3597 1894 
z
M 3022 2063 
Q 3016 2534 2758 2815 
Q 2500 3097 2075 3097 
Q 1594 3097 1305 2825 
Q 1016 2553 972 2059 
L 3022 2063 
z
" transform="scale(0.015625)"/>
      </defs>
      <use xlink:href="#DejaVuSans-44"/>
      <use xlink:href="#DejaVuSans-65" x="77.001953"/>
      <use xlink:href="#DejaVuSans-6e" x="138.525391"/>
      <use xlink:href="#DejaVuSans-73" x="201.904297"/>
      <use xlink:href="#DejaVuSans-69" x="254.003906"/>
      <use xlink:href="#DejaVuSans-74" x="281.787109"/>
      <use xlink:href="#DejaVuSans-79" x="320.996094"/>
     </g>
    </g>
   </g>
   <g id="line2d_18">
    <path d="M 81.166044 384.910135 
L 91.277911 384.212241 
L 100.200146 383.379041 
L 108.527566 382.370396 
L 115.665354 381.291739 
L 122.803143 379.98116 
L 129.346115 378.546574 
L 135.294272 377.024967 
L 141.242429 375.274757 
L 147.190586 373.275496 
L 152.543928 371.247085 
L 157.897269 368.988023 
L 163.25061 366.486685 
L 168.603951 363.733387 
L 173.957293 360.720852 
L 179.310634 357.444695 
L 184.663975 353.903886 
L 190.017316 350.1012 
L 195.370658 346.043626 
L 201.318815 341.250488 
L 207.266972 336.17995 
L 213.809944 330.318709 
L 221.542548 323.078313 
L 231.654415 313.268761 
L 250.093702 295.309973 
L 257.23149 288.697335 
L 263.179647 283.478372 
L 268.532988 279.075316 
L 273.291514 275.440755 
L 278.050039 272.106843 
L 282.213749 269.463104 
L 286.377459 267.096687 
L 289.946353 265.303614 
L 293.515248 263.73916 
L 297.084142 262.412824 
L 300.653036 261.332722 
L 304.22193 260.505509 
L 307.790824 259.936306 
L 311.359718 259.628652 
L 314.928613 259.584462 
L 318.497507 259.804012 
L 322.066401 260.285934 
L 325.635295 261.02723 
L 329.204189 262.023303 
L 332.773083 263.268006 
L 336.341978 264.753703 
L 339.910872 266.471349 
L 343.479766 268.410579 
L 347.643476 270.937564 
L 351.807186 273.730089 
L 356.565711 277.218375 
L 361.324237 280.989473 
L 366.677578 285.523718 
L 372.625735 290.8597 
L 379.763523 297.572337 
L 389.87539 307.416722 
L 406.53023 323.639862 
L 414.262834 330.857472 
L 421.400622 337.210023 
L 427.943595 342.714156 
L 433.891752 347.419547 
L 439.245093 351.393476 
L 444.598434 355.109705 
L 449.951776 358.562687 
L 455.305117 361.750958 
L 460.658458 364.676714 
L 466.011799 367.345355 
L 471.365141 369.765009 
L 476.718482 371.946058 
L 482.071823 373.90067 
L 488.01998 375.823352 
L 493.968137 377.503027 
L 499.916294 378.960311 
L 506.459267 380.331328 
L 513.597055 381.580942 
L 520.734843 382.606964 
L 528.467447 383.503223 
L 537.389683 384.306306 
L 547.50155 384.977595 
L 558.803048 385.500022 
L 572.483809 385.904656 
L 590.32828 386.19465 
L 615.905355 386.366766 
L 665.869873 386.434929 
L 675.386924 386.437088 
L 675.386924 386.437088 
" clip-path="url(#p5c2b0c1110)" style="fill: none; stroke: #1f77b4; stroke-width: 2; stroke-linecap: square"/>
   </g>
   <g id="line2d_19">
    <path d="M 81.166044 386.44 
L 233.438862 386.331716 
L 251.878149 386.096191 
L 264.369278 385.725946 
L 273.88633 385.228338 
L 281.618934 384.611013 
L 288.161906 383.880872 
L 294.110063 383.001352 
L 299.463404 381.990275 
L 304.22193 380.880444 
L 308.980456 379.535827 
L 313.144165 378.136476 
L 317.307875 376.499792 
L 321.471585 374.595662 
L 325.040479 372.726556 
L 328.609374 370.616597 
L 332.178268 368.244214 
L 335.747162 365.587441 
L 339.316056 362.624183 
L 342.88495 359.332517 
L 346.453844 355.691035 
L 350.022739 351.679228 
L 353.591633 347.277906 
L 357.160527 342.469644 
L 360.729421 337.239257 
L 364.298315 331.5743 
L 367.86721 325.465565 
L 371.436104 318.907592 
L 375.004998 311.89916 
L 378.573892 304.443764 
L 382.737602 295.192728 
L 386.901312 285.368633 
L 391.065022 275.005756 
L 395.823547 262.561964 
L 401.176888 247.902678 
L 407.719861 229.257726 
L 419.021359 196.163169 
L 426.753963 173.822858 
L 432.107305 158.982927 
L 436.86583 146.4767 
L 441.02954 136.219615 
L 444.598434 128.03687 
L 447.572513 121.705052 
L 450.546591 115.860224 
L 453.52067 110.541119 
L 455.899933 106.688502 
L 458.279195 103.212086 
L 460.658458 100.127151 
L 463.037721 97.447365 
L 465.416984 95.184682 
L 467.201431 93.767572 
L 468.985878 92.594424 
L 470.770325 91.668223 
L 472.554772 90.991329 
L 474.339219 90.565471 
L 476.123666 90.391737 
L 477.908113 90.470572 
L 479.69256 90.801775 
L 481.477007 91.384499 
L 483.261455 92.217253 
L 485.045902 93.297915 
L 486.830349 94.623733 
L 488.614796 96.191342 
L 490.399243 97.996776 
L 492.778506 100.766026 
L 495.157768 103.937586 
L 497.537031 107.497427 
L 499.916294 111.429932 
L 502.890373 116.843451 
L 505.864451 122.776136 
L 508.838529 129.188779 
L 512.407424 137.458676 
L 515.976318 146.283863 
L 520.140028 157.176548 
L 524.898553 170.255054 
L 530.84671 187.265974 
L 553.449707 252.649299 
L 558.803048 267.099223 
L 563.561574 279.320899 
L 567.725283 289.467549 
L 571.888993 299.059987 
L 576.052703 308.068508 
L 579.621597 315.310664 
L 583.190491 322.103566 
L 586.759386 328.446035 
L 590.32828 334.34138 
L 593.897174 339.79692 
L 597.466068 344.823474 
L 601.034962 349.434864 
L 604.603857 353.647405 
L 608.172751 357.479426 
L 611.741645 360.950805 
L 615.310539 364.082529 
L 618.879433 366.896298 
L 622.448327 369.414159 
L 626.017222 371.65818 
L 629.586116 373.650169 
L 633.15501 375.411427 
L 637.31872 377.202042 
L 641.48243 378.737797 
L 645.64614 380.048009 
L 650.404665 381.304079 
L 655.163191 382.338289 
L 660.516532 383.27805 
L 666.464689 384.093198 
L 673.007662 384.767778 
L 675.386924 384.965864 
L 675.386924 384.965864 
" clip-path="url(#p5c2b0c1110)" style="fill: none; stroke: #ff7f0e; stroke-width: 2; stroke-linecap: square"/>
   </g>
   <g id="patch_53">
    <path d="M 51.455 386.44 
L 51.455 27.6 
" style="fill: none; stroke: #000000; stroke-width: 0.8; stroke-linejoin: miter; stroke-linecap: square"/>
   </g>
   <g id="patch_54">
    <path d="M 705.097968 386.44 
L 705.097968 27.6 
" style="fill: none; stroke: #000000; stroke-width: 0.8; stroke-linejoin: miter; stroke-linecap: square"/>
   </g>
   <g id="patch_55">
    <path d="M 51.455 386.44 
L 705.097968 386.44 
" style="fill: none; stroke: #000000; stroke-width: 0.8; stroke-linejoin: miter; stroke-linecap: square"/>
   </g>
   <g id="patch_56">
    <path d="M 51.455 27.6 
L 705.097968 27.6 
" style="fill: none; stroke: #000000; stroke-width: 0.8; stroke-linejoin: miter; stroke-linecap: square"/>
   </g>
   <g id="text_20">
    <!-- GMM Classification of Radius of Gyration (n = 1383): class_1: 67.8%, class_0: 32.2% -->
    <g transform="translate(82.643515 21.6) scale(0.14 -0.14)">
     <defs>
      <path id="DejaVuSans-4d" d="M 628 4666 
L 1569 4666 
L 2759 1491 
L 3956 4666 
L 4897 4666 
L 4897 0 
L 4281 0 
L 4281 4097 
L 3078 897 
L 2444 897 
L 1241 4097 
L 1241 0 
L 628 0 
L 628 4666 
z
" transform="scale(0.015625)"/>
      <path id="DejaVuSans-43" d="M 4122 4306 
L 4122 3641 
Q 3803 3938 3442 4084 
Q 3081 4231 2675 4231 
Q 1875 4231 1450 3742 
Q 1025 3253 1025 2328 
Q 1025 1406 1450 917 
Q 1875 428 2675 428 
Q 3081 428 3442 575 
Q 3803 722 4122 1019 
L 4122 359 
Q 3791 134 3420 21 
Q 3050 -91 2638 -91 
Q 1578 -91 968 557 
Q 359 1206 359 2328 
Q 359 3453 968 4101 
Q 1578 4750 2638 4750 
Q 3056 4750 3426 4639 
Q 3797 4528 4122 4306 
z
" transform="scale(0.015625)"/>
      <path id="DejaVuSans-63" d="M 3122 3366 
L 3122 2828 
Q 2878 2963 2633 3030 
Q 2388 3097 2138 3097 
Q 1578 3097 1268 2742 
Q 959 2388 959 1747 
Q 959 1106 1268 751 
Q 1578 397 2138 397 
Q 2388 397 2633 464 
Q 2878 531 3122 666 
L 3122 134 
Q 2881 22 2623 -34 
Q 2366 -91 2075 -91 
Q 1284 -91 818 406 
Q 353 903 353 1747 
Q 353 2603 823 3093 
Q 1294 3584 2113 3584 
Q 2378 3584 2631 3529 
Q 2884 3475 3122 3366 
z
" transform="scale(0.015625)"/>
      <path id="DejaVuSans-3d" d="M 678 2906 
L 4684 2906 
L 4684 2381 
L 678 2381 
L 678 2906 
z
M 678 1631 
L 4684 1631 
L 4684 1100 
L 678 1100 
L 678 1631 
z
" transform="scale(0.015625)"/>
      <path id="DejaVuSans-3a" d="M 750 794 
L 1409 794 
L 1409 0 
L 750 0 
L 750 794 
z
M 750 3309 
L 1409 3309 
L 1409 2516 
L 750 2516 
L 750 3309 
z
" transform="scale(0.015625)"/>
      <path id="DejaVuSans-5f" d="M 3263 -1063 
L 3263 -1509 
L -63 -1509 
L -63 -1063 
L 3263 -1063 
z
" transform="scale(0.015625)"/>
      <path id="DejaVuSans-25" d="M 4653 2053 
Q 4381 2053 4226 1822 
Q 4072 1591 4072 1178 
Q 4072 772 4226 539 
Q 4381 306 4653 306 
Q 4919 306 5073 539 
Q 5228 772 5228 1178 
Q 5228 1588 5073 1820 
Q 4919 2053 4653 2053 
z
M 4653 2450 
Q 5147 2450 5437 2106 
Q 5728 1763 5728 1178 
Q 5728 594 5436 251 
Q 5144 -91 4653 -91 
Q 4153 -91 3862 251 
Q 3572 594 3572 1178 
Q 3572 1766 3864 2108 
Q 4156 2450 4653 2450 
z
M 1428 4353 
Q 1159 4353 1004 4120 
Q 850 3888 850 3481 
Q 850 3069 1003 2837 
Q 1156 2606 1428 2606 
Q 1700 2606 1854 2837 
Q 2009 3069 2009 3481 
Q 2009 3884 1853 4118 
Q 1697 4353 1428 4353 
z
M 4250 4750 
L 4750 4750 
L 1831 -91 
L 1331 -91 
L 4250 4750 
z
M 1428 4750 
Q 1922 4750 2215 4408 
Q 2509 4066 2509 3481 
Q 2509 2891 2217 2550 
Q 1925 2209 1428 2209 
Q 931 2209 642 2551 
Q 353 2894 353 3481 
Q 353 4063 643 4406 
Q 934 4750 1428 4750 
z
" transform="scale(0.015625)"/>
      <path id="DejaVuSans-2c" d="M 750 794 
L 1409 794 
L 1409 256 
L 897 -744 
L 494 -744 
L 750 256 
L 750 794 
z
" transform="scale(0.015625)"/>
     </defs>
     <use xlink:href="#DejaVuSans-47"/>
     <use xlink:href="#DejaVuSans-4d" x="77.490234"/>
     <use xlink:href="#DejaVuSans-4d" x="163.769531"/>
     <use xlink:href="#DejaVuSans-20" x="250.048828"/>
     <use xlink:href="#DejaVuSans-43" x="281.835938"/>
     <use xlink:href="#DejaVuSans-6c" x="351.660156"/>
     <use xlink:href="#DejaVuSans-61" x="379.443359"/>
     <use xlink:href="#DejaVuSans-73" x="440.722656"/>
     <use xlink:href="#DejaVuSans-73" x="492.822266"/>
     <use xlink:href="#DejaVuSans-69" x="544.921875"/>
     <use xlink:href="#DejaVuSans-66" x="572.705078"/>
     <use xlink:href="#DejaVuSans-69" x="607.910156"/>
     <use xlink:href="#DejaVuSans-63" x="635.693359"/>
     <use xlink:href="#DejaVuSans-61" x="690.673828"/>
     <use xlink:href="#DejaVuSans-74" x="751.953125"/>
     <use xlink:href="#DejaVuSans-69" x="791.162109"/>
     <use xlink:href="#DejaVuSans-6f" x="818.945312"/>
     <use xlink:href="#DejaVuSans-6e" x="880.126953"/>
     <use xlink:href="#DejaVuSans-20" x="943.505859"/>
     <use xlink:href="#DejaVuSans-6f" x="975.292969"/>
     <use xlink:href="#DejaVuSans-66" x="1036.474609"/>
     <use xlink:href="#DejaVuSans-20" x="1071.679688"/>
     <use xlink:href="#DejaVuSans-52" x="1103.466797"/>
     <use xlink:href="#DejaVuSans-61" x="1170.699219"/>
     <use xlink:href="#DejaVuSans-64" x="1231.978516"/>
     <use xlink:href="#DejaVuSans-69" x="1295.455078"/>
     <use xlink:href="#DejaVuSans-75" x="1323.238281"/>
     <use xlink:href="#DejaVuSans-73" x="1386.617188"/>
     <use xlink:href="#DejaVuSans-20" x="1438.716797"/>
     <use xlink:href="#DejaVuSans-6f" x="1470.503906"/>
     <use xlink:href="#DejaVuSans-66" x="1531.685547"/>
     <use xlink:href="#DejaVuSans-20" x="1566.890625"/>
     <use xlink:href="#DejaVuSans-47" x="1598.677734"/>
     <use xlink:href="#DejaVuSans-79" x="1676.167969"/>
     <use xlink:href="#DejaVuSans-72" x="1735.347656"/>
     <use xlink:href="#DejaVuSans-61" x="1776.460938"/>
     <use xlink:href="#DejaVuSans-74" x="1837.740234"/>
     <use xlink:href="#DejaVuSans-69" x="1876.949219"/>
     <use xlink:href="#DejaVuSans-6f" x="1904.732422"/>
     <use xlink:href="#DejaVuSans-6e" x="1965.914062"/>
     <use xlink:href="#DejaVuSans-20" x="2029.292969"/>
     <use xlink:href="#DejaVuSans-28" x="2061.080078"/>
     <use xlink:href="#DejaVuSans-6e" x="2100.09375"/>
     <use xlink:href="#DejaVuSans-20" x="2163.472656"/>
     <use xlink:href="#DejaVuSans-3d" x="2195.259766"/>
     <use xlink:href="#DejaVuSans-20" x="2279.048828"/>
     <use xlink:href="#DejaVuSans-31" x="2310.835938"/>
     <use xlink:href="#DejaVuSans-33" x="2374.458984"/>
     <use xlink:href="#DejaVuSans-38" x="2438.082031"/>
     <use xlink:href="#DejaVuSans-33" x="2501.705078"/>
     <use xlink:href="#DejaVuSans-29" x="2565.328125"/>
     <use xlink:href="#DejaVuSans-3a" x="2604.341797"/>
     <use xlink:href="#DejaVuSans-20" x="2638.033203"/>
     <use xlink:href="#DejaVuSans-63" x="2669.820312"/>
     <use xlink:href="#DejaVuSans-6c" x="2724.800781"/>
     <use xlink:href="#DejaVuSans-61" x="2752.583984"/>
     <use xlink:href="#DejaVuSans-73" x="2813.863281"/>
     <use xlink:href="#DejaVuSans-73" x="2865.962891"/>
     <use xlink:href="#DejaVuSans-5f" x="2918.0625"/>
     <use xlink:href="#DejaVuSans-31" x="2968.0625"/>
     <use xlink:href="#DejaVuSans-3a" x="3031.685547"/>
     <use xlink:href="#DejaVuSans-20" x="3065.376953"/>
     <use xlink:href="#DejaVuSans-36" x="3097.164062"/>
     <use xlink:href="#DejaVuSans-37" x="3160.787109"/>
     <use xlink:href="#DejaVuSans-2e" x="3224.410156"/>
     <use xlink:href="#DejaVuSans-38" x="3256.197266"/>
     <use xlink:href="#DejaVuSans-25" x="3319.820312"/>
     <use xlink:href="#DejaVuSans-2c" x="3414.839844"/>
     <use xlink:href="#DejaVuSans-20" x="3446.626953"/>
     <use xlink:href="#DejaVuSans-63" x="3478.414062"/>
     <use xlink:href="#DejaVuSans-6c" x="3533.394531"/>
     <use xlink:href="#DejaVuSans-61" x="3561.177734"/>
     <use xlink:href="#DejaVuSans-73" x="3622.457031"/>
     <use xlink:href="#DejaVuSans-73" x="3674.556641"/>
     <use xlink:href="#DejaVuSans-5f" x="3726.65625"/>
     <use xlink:href="#DejaVuSans-30" x="3776.65625"/>
     <use xlink:href="#DejaVuSans-3a" x="3840.279297"/>
     <use xlink:href="#DejaVuSans-20" x="3873.970703"/>
     <use xlink:href="#DejaVuSans-33" x="3905.757812"/>
     <use xlink:href="#DejaVuSans-32" x="3969.380859"/>
     <use xlink:href="#DejaVuSans-2e" x="4033.003906"/>
     <use xlink:href="#DejaVuSans-32" x="4064.791016"/>
     <use xlink:href="#DejaVuSans-25" x="4128.414062"/>
    </g>
   </g>
   <g id="legend_1">
    <g id="patch_57">
     <path d="M 556.318281 80.190625 
L 698.097968 80.190625 
Q 700.097968 80.190625 700.097968 78.190625 
L 700.097968 34.6 
Q 700.097968 32.6 698.097968 32.6 
L 556.318281 32.6 
Q 554.318281 32.6 554.318281 34.6 
L 554.318281 78.190625 
Q 554.318281 80.190625 556.318281 80.190625 
z
" style="fill: #ffffff; opacity: 0.8; stroke: #cccccc; stroke-linejoin: miter"/>
    </g>
    <g id="patch_58">
     <path d="M 558.318281 44.198438 
L 578.318281 44.198438 
L 578.318281 37.198438 
L 558.318281 37.198438 
z
" style="fill: #808080; opacity: 0.5"/>
    </g>
    <g id="text_21">
     <!-- Data histogram -->
     <g transform="translate(586.318281 44.198438) scale(0.1 -0.1)">
      <defs>
       <path id="DejaVuSans-68" d="M 3513 2113 
L 3513 0 
L 2938 0 
L 2938 2094 
Q 2938 2591 2744 2837 
Q 2550 3084 2163 3084 
Q 1697 3084 1428 2787 
Q 1159 2491 1159 1978 
L 1159 0 
L 581 0 
L 581 4863 
L 1159 4863 
L 1159 2956 
Q 1366 3272 1645 3428 
Q 1925 3584 2291 3584 
Q 2894 3584 3203 3211 
Q 3513 2838 3513 2113 
z
" transform="scale(0.015625)"/>
       <path id="DejaVuSans-6d" d="M 3328 2828 
Q 3544 3216 3844 3400 
Q 4144 3584 4550 3584 
Q 5097 3584 5394 3201 
Q 5691 2819 5691 2113 
L 5691 0 
L 5113 0 
L 5113 2094 
Q 5113 2597 4934 2840 
Q 4756 3084 4391 3084 
Q 3944 3084 3684 2787 
Q 3425 2491 3425 1978 
L 3425 0 
L 2847 0 
L 2847 2094 
Q 2847 2600 2669 2842 
Q 2491 3084 2119 3084 
Q 1678 3084 1418 2786 
Q 1159 2488 1159 1978 
L 1159 0 
L 581 0 
L 581 3500 
L 1159 3500 
L 1159 2956 
Q 1356 3278 1631 3431 
Q 1906 3584 2284 3584 
Q 2666 3584 2933 3390 
Q 3200 3197 3328 2828 
z
" transform="scale(0.015625)"/>
      </defs>
      <use xlink:href="#DejaVuSans-44"/>
      <use xlink:href="#DejaVuSans-61" x="77.001953"/>
      <use xlink:href="#DejaVuSans-74" x="138.28125"/>
      <use xlink:href="#DejaVuSans-61" x="177.490234"/>
      <use xlink:href="#DejaVuSans-20" x="238.769531"/>
      <use xlink:href="#DejaVuSans-68" x="270.556641"/>
      <use xlink:href="#DejaVuSans-69" x="333.935547"/>
      <use xlink:href="#DejaVuSans-73" x="361.71875"/>
      <use xlink:href="#DejaVuSans-74" x="413.818359"/>
      <use xlink:href="#DejaVuSans-6f" x="453.027344"/>
      <use xlink:href="#DejaVuSans-67" x="514.208984"/>
      <use xlink:href="#DejaVuSans-72" x="577.685547"/>
      <use xlink:href="#DejaVuSans-61" x="618.798828"/>
      <use xlink:href="#DejaVuSans-6d" x="680.078125"/>
     </g>
    </g>
    <g id="line2d_20">
     <path d="M 558.318281 55.376563 
L 568.318281 55.376563 
L 578.318281 55.376563 
" style="fill: none; stroke: #1f77b4; stroke-width: 2; stroke-linecap: square"/>
    </g>
    <g id="text_22">
     <!-- class_0 (mean=-0.31) -->
     <g transform="translate(586.318281 58.876563) scale(0.1 -0.1)">
      <defs>
       <path id="DejaVuSans-2d" d="M 313 2009 
L 1997 2009 
L 1997 1497 
L 313 1497 
L 313 2009 
z
" transform="scale(0.015625)"/>
      </defs>
      <use xlink:href="#DejaVuSans-63"/>
      <use xlink:href="#DejaVuSans-6c" x="54.980469"/>
      <use xlink:href="#DejaVuSans-61" x="82.763672"/>
      <use xlink:href="#DejaVuSans-73" x="144.042969"/>
      <use xlink:href="#DejaVuSans-73" x="196.142578"/>
      <use xlink:href="#DejaVuSans-5f" x="248.242188"/>
      <use xlink:href="#DejaVuSans-30" x="298.242188"/>
      <use xlink:href="#DejaVuSans-20" x="361.865234"/>
      <use xlink:href="#DejaVuSans-28" x="393.652344"/>
      <use xlink:href="#DejaVuSans-6d" x="432.666016"/>
      <use xlink:href="#DejaVuSans-65" x="530.078125"/>
      <use xlink:href="#DejaVuSans-61" x="591.601562"/>
      <use xlink:href="#DejaVuSans-6e" x="652.880859"/>
      <use xlink:href="#DejaVuSans-3d" x="716.259766"/>
      <use xlink:href="#DejaVuSans-2d" x="800.048828"/>
      <use xlink:href="#DejaVuSans-30" x="836.132812"/>
      <use xlink:href="#DejaVuSans-2e" x="899.755859"/>
      <use xlink:href="#DejaVuSans-33" x="931.542969"/>
      <use xlink:href="#DejaVuSans-31" x="995.166016"/>
      <use xlink:href="#DejaVuSans-29" x="1058.789062"/>
     </g>
    </g>
    <g id="line2d_21">
     <path d="M 558.318281 70.332812 
L 568.318281 70.332812 
L 578.318281 70.332812 
" style="fill: none; stroke: #ff7f0e; stroke-width: 2; stroke-linecap: square"/>
    </g>
    <g id="text_23">
     <!-- class_1 (mean=0.66) -->
     <g transform="translate(586.318281 73.832812) scale(0.1 -0.1)">
      <use xlink:href="#DejaVuSans-63"/>
      <use xlink:href="#DejaVuSans-6c" x="54.980469"/>
      <use xlink:href="#DejaVuSans-61" x="82.763672"/>
      <use xlink:href="#DejaVuSans-73" x="144.042969"/>
      <use xlink:href="#DejaVuSans-73" x="196.142578"/>
      <use xlink:href="#DejaVuSans-5f" x="248.242188"/>
      <use xlink:href="#DejaVuSans-31" x="298.242188"/>
      <use xlink:href="#DejaVuSans-20" x="361.865234"/>
      <use xlink:href="#DejaVuSans-28" x="393.652344"/>
      <use xlink:href="#DejaVuSans-6d" x="432.666016"/>
      <use xlink:href="#DejaVuSans-65" x="530.078125"/>
      <use xlink:href="#DejaVuSans-61" x="591.601562"/>
      <use xlink:href="#DejaVuSans-6e" x="652.880859"/>
      <use xlink:href="#DejaVuSans-3d" x="716.259766"/>
      <use xlink:href="#DejaVuSans-30" x="800.048828"/>
      <use xlink:href="#DejaVuSans-2e" x="863.671875"/>
      <use xlink:href="#DejaVuSans-36" x="895.458984"/>
      <use xlink:href="#DejaVuSans-36" x="959.082031"/>
      <use xlink:href="#DejaVuSans-29" x="1022.705078"/>
     </g>
    </g>
   </g>
  </g>
 </g>
 <defs>
  <clipPath id="p5c2b0c1110">
   <rect x="51.455" y="27.6" width="653.642968" height="358.84"/>
  </clipPath>
 </defs>
</svg>
